<?xml version="1.0" encoding="UTF-8" standalone="no"?>
<svg
   xmlns:dc="http://purl.org/dc/elements/1.1/"
   xmlns:cc="http://creativecommons.org/ns#"
   xmlns:rdf="http://www.w3.org/1999/02/22-rdf-syntax-ns#"
   xmlns:svg="http://www.w3.org/2000/svg"
   xmlns="http://www.w3.org/2000/svg"
   viewBox="0 0 3232.0059 3218.3796"
   height="3218.3796"
   width="3232.0059"
   xml:space="preserve"
   id="svg2"
   version="1.1"><metadata
     id="metadata8"><rdf:RDF><cc:Work
         rdf:about=""><dc:format>image/svg+xml</dc:format><dc:type
           rdf:resource="http://purl.org/dc/dcmitype/StillImage" /></cc:Work></rdf:RDF></metadata><defs
     id="defs6" /><g
     transform="matrix(1.3333333,0,0,-1.3333333,3.206352e-4,3218.3753)"
     id="g10"><g
       transform="scale(0.1)"
       id="g12"><g
         transform="scale(1.48712)"
         id="g14"><path
           id="path16"
           style="fill:#9cdedd;fill-opacity:1;fill-rule:nonzero;stroke:none"
           d="M 860.666,13876.2 C 710.758,13275.3 764.998,12612.8 1107.96,12097.1 1399.12,11659.2 1850,11341.8 2118.18,10889.6 2669.92,9959.11 2297.08,8750.96 1727.33,7831.46 1157.58,6911.9 392,6080.56 109.285,5036.39 -117.331,4199.47 7.36797,3261.88 493.814,2544.05 980.261,1826.29 1852.22,1457.72 2724.9,1453.75 c 1127.21,-5.11 2092.98,784 3219.7,817.49 1057.14,31.4 1992.5,-621.27 2904.67,-1156.53 C 9766.28,576.688 10761.2,127.832 11819,21.7887 c 1057.9,-105.9779 2426.6,170.2623 3183.9,916.5383 757.2,746.273 1036.3,2002.873 496.5,2918.873 -515.7,875.18 -1644.8,1327.06 -1963,2291.81 -218.9,663.84 20.6,1400.3 400.3,1987.14 379.7,586.84 892.5,1075.64 1303.1,1641.41 501.1,690.64 845,1494.64 998.2,2334.04 105.9,580.3 106.6,1227.9 -244.2,1702.1 -383.6,518.7 -1346.1,692.9 -1979.1,567.7 -633,-125.1 -1187.6,-499 -1688.2,-906 -500.7,-406.9 -971.2,-858.3 -1528.6,-1183.4 -382.9,-223.5 -844.48,-385.8 -1266.03,-248.5 -558.19,181.9 -826.43,794.4 -1088.95,1319.5 C 7854.8,14539.4 6978,15747.8 5705.01,16078.5 2884.84,16811.4 1069.61,14713.8 860.666,13876.2" /></g></g></g></svg>