<?xml version="1.0" encoding="UTF-8" standalone="no"?>
<svg
   xmlns:dc="http://purl.org/dc/elements/1.1/"
   xmlns:cc="http://creativecommons.org/ns#"
   xmlns:rdf="http://www.w3.org/1999/02/22-rdf-syntax-ns#"
   xmlns:svg="http://www.w3.org/2000/svg"
   xmlns="http://www.w3.org/2000/svg"
   viewBox="0 0 945.99006 1089.1957"
   height="1089.1957"
   width="945.99005"
   xml:space="preserve"
   id="svg2"
   version="1.1"><metadata
     id="metadata8"><rdf:RDF><cc:Work
         rdf:about=""><dc:format>image/svg+xml</dc:format><dc:type
           rdf:resource="http://purl.org/dc/dcmitype/StillImage" /></cc:Work></rdf:RDF></metadata><defs
     id="defs6" /><g
     transform="matrix(1.3333333,0,0,-1.3333333,-146.10195,1242.373)"
     id="g10"><g
       transform="scale(0.1)"
       id="g12"><path
         id="path14"
         style="fill:#cc4669;fill-opacity:1;fill-rule:nonzero;stroke:none"
         d="m 2698.72,2021.43 -183.91,-168.51 -75.78,-218.38 100.83,8.61 -4.77,-494.32 363.81,717.41 -200.18,155.19" /><path
         id="path16"
         style="fill:#f0d1a3;fill-opacity:1;fill-rule:nonzero;stroke:none"
         d="m 2974.7,3007.22 -369.12,-1321.3 c -11.93,-42.96 9.05,-88.23 49.54,-106.9 44.41,-20.47 97.06,-2.16 119.18,41.45 l 569.23,1114.19 -368.83,272.56" /><path
         id="path18"
         style="fill:#ffffff;fill-opacity:1;fill-rule:nonzero;stroke:none"
         d="m 7772.5,3169.43 273.03,-76.36 3.27,-276.39 -85.19,57.3 -263.39,102.19 72.28,193.26" /><path
         id="path20"
         style="fill:#2f2b2a;fill-opacity:1;fill-rule:nonzero;stroke:none"
         d="m 8190.69,3060.72 -2.76,-205.7 -66.01,10.63 51.69,-441.67 c 0,0 -110,30 -125.81,167.69 -5.35,46.66 -16.44,92.56 -36.58,134.99 -19.29,40.61 -45.57,83.05 -76.05,98.62 -19.91,6.37 1.2,69.27 93.97,54.82 -8.77,7.39 16.39,212.97 16.39,212.97 l 145.16,-32.35" /><path
         id="path22"
         style="fill:#5c5455;fill-opacity:1;fill-rule:nonzero;stroke:none"
         d="m 8190.69,3060.72 -2.76,-205.7 -66.01,10.63 -18.33,214.48 87.1,-19.41" /><path
         id="path24"
         style="fill:#cc4669;fill-opacity:1;fill-rule:nonzero;stroke:none"
         d="m 5161.4,7911.08 333.49,28.5 c 410.87,35.11 772.41,-269.5 807.52,-680.37 15.02,-175.79 120.68,-331 278.71,-409.44 l 694.09,-344.52 c 564.24,-280.07 785.94,-970.68 490.15,-1526.84 v -0.01 C 7488.86,4458.52 6856.58,4242.12 6319.5,4483.53 l -202.58,91.07 -1682.63,2773.44 727.11,563.04" /><path
         id="path26"
         style="fill:#b81d23;fill-opacity:1;fill-rule:nonzero;stroke:none"
         d="m 6511.28,5861.78 c 0,0 1362.83,-48.7 1167.87,-1020.69 7.61,10.51 -509.9,-820.48 -1562.23,-266.49 l 394.36,1287.18" /><path
         id="path28"
         style="fill:#b53455;fill-opacity:1;fill-rule:nonzero;stroke:none"
         d="m 7717.78,2885.35 88.21,298.04 -1918.4,795.99 569.68,1517.45 -980.66,-403.19 -207.5,-971.34 665.78,-770.41 c 0,0 721.57,-462.5 1782.89,-466.54" /><path
         id="path30"
         style="fill:#b81d23;fill-opacity:1;fill-rule:nonzero;stroke:none"
         d="m 5928.95,5108.01 -217.54,-838.45 8.17,-2.12 217.54,838.45" /><path
         id="path32"
         style="fill:#b81d23;fill-opacity:1;fill-rule:nonzero;stroke:none"
         d="m 7768.31,3055.61 -1921.53,633.76 -2.8,-8.49 1921.53,-633.76" /><path
         id="path34"
         style="fill:#f0d1a3;fill-opacity:1;fill-rule:nonzero;stroke:none"
         d="m 5578.76,4626.04 c 0,0 228.24,-368.1 521.09,-1422.43 0,0 291.03,-893.47 488.51,-1180.71 13.87,-22.68 -229.87,-31.58 -346.13,352.06 -0.5,5.74 -643.38,570.31 -671.39,1243.42 -2.57,61.58 -15.55,122.38 -39.06,179.36 -24.91,60.32 -68.69,134.32 -149.55,197.3 -12.35,4.9 -195.81,197.93 -195.81,197.93 l 392.34,433.07" /><path
         id="path36"
         style="fill:#cc4669;fill-opacity:1;fill-rule:nonzero;stroke:none"
         d="m 6242.23,2374.96 c 0,0 66.37,-220.24 346.13,-352.06 l 127.33,-314.48 -464.32,365.17 -108.63,-71.61 -77.99,230.89 177.48,142.09" /><path
         id="path38"
         style="fill:#8f8c8b;fill-opacity:1;fill-rule:nonzero;stroke:none"
         d="m 2597.63,3953.83 c 78.82,-922.39 890.47,-1606.24 1812.85,-1527.41 922.39,78.82 1606.24,890.46 1527.41,1812.85 -78.82,922.39 -890.46,1606.23 -1812.85,1527.41 -922.38,-78.82 -1606.23,-890.46 -1527.41,-1812.85" /><path
         id="path40"
         style="fill:#191615;fill-opacity:1;fill-rule:nonzero;stroke:none"
         d="m 2907.84,8517 c 27.4,-320.65 309.55,-558.38 630.21,-530.98 320.65,27.4 558.38,309.56 530.98,630.21 -27.4,320.66 -309.56,558.39 -630.21,530.98 -320.66,-27.4 -558.38,-309.55 -530.98,-630.21" /><path
         id="path42"
         style="fill:#cc4669;fill-opacity:1;fill-rule:nonzero;stroke:none"
         d="m 3733.73,7111.09 172.02,593.95 377.61,83.31 53.48,-625.73 -603.11,-51.53" /><path
         id="path44"
         style="fill:#f0d1a3;fill-opacity:1;fill-rule:nonzero;stroke:none"
         d="m 4298.79,7607.79 -275.7,52.81 c -81.24,15.56 -142.22,83.25 -149.27,165.66 -7.32,85.69 45.47,165.1 127.32,191.5 l 21.06,6.79 c 31.21,10.07 51.34,40.34 48.54,73.01 l -11.3,132.2 c -2.35,27.55 10.11,54.29 32.73,70.21 l 6.42,4.52 c 10.95,7.71 12.34,23.41 2.91,32.91 l -30.51,30.78 c -21.7,21.89 -37.5,49.18 -44.23,79.25 -32.8,146.6 -169.71,250.07 -323.55,236.92 l -99.84,-8.53 c -245.82,-21.01 -428.06,-237.31 -407.05,-483.12 l 9.79,-114.56 336.49,-305.39 9.3,-108.87 c 4.5,-52.6 -61.81,-114.67 -149.01,-130.74 -54.56,-10.06 -286.69,-35.62 -300.4,-36.79 -13.73,-1.18 -156.93,-428.06 -156.93,-428.06 l 1385.42,162.86 -32.19,376.64" /><path
         id="path46"
         style="fill:#f0d1a3;fill-opacity:1;fill-rule:nonzero;stroke:none"
         d="m 3616.59,6668.48 -576.06,-803.7 c -76.83,-107.2 -222.02,-139.39 -336.96,-74.72 -120.76,67.95 -166.5,219.03 -103.69,342.55 l 425.32,1135.98 328.3,-72.25 263.09,-527.86" /><path
         id="path48"
         style="fill:#8f8c8b;fill-opacity:1;fill-rule:nonzero;stroke:none"
         d="m 3374.98,6867.87 c 0,0 -76.32,159.16 -14.91,285.61 55.69,114.64 108.05,230.87 149.5,351.39 l 35.72,147.16 395.58,61.45 416.44,-392.66 c -12.95,-1.11 80.59,-943.12 80.59,-943.12 l 980.04,-71.26 c 0,0 214.84,-373.33 222.86,-378.89 8.02,-5.56 -94.78,-282.5 -94.78,-282.5 l -949.3,-857.35 -487.79,-1036.36 -23.84,-151.65 -401.15,-34.28 c -979.8,-83.72 -324.71,1942.19 -324.71,1942.19 254.63,125.89 404.09,455.57 351.61,734.73 l -67.64,359.92 -268.22,265.62" /><path
         id="path50"
         style="fill:#cc4669;fill-opacity:1;fill-rule:nonzero;stroke:none"
         d="m 5341.06,6268.65 28.25,-330.45 -1213.2,-987.31 c -98.56,-81.83 -160.02,-181.75 -198.34,-274.68 -47.21,-114.49 -66.67,-238.52 -59.02,-362.12 l 121.21,-1956.92 355.21,30.36 116.55,2055.36 1686.51,777.03 0.02,0.03 c 217.48,96.5 360.19,324.05 333.85,632.2 l -602,171.14 -569.04,245.36" /><path
         id="path52"
         style="fill:#4549a0;fill-opacity:1;fill-rule:nonzero;stroke:none"
         d="m 5294.95,6348.2 c 0,0 243.12,-929.92 1216.33,-486.42 -762.94,115.07 -826.93,584.8 -988.48,1065.14 l -27.71,82.41 -200.14,-661.13" /><path
         id="path54"
         style="fill:#ffffff;fill-opacity:1;fill-rule:nonzero;stroke:none"
         d="m 4997.86,7897.11 -23.27,272.32 -199.21,-280.35 -252.7,205.95 24.28,-284.16 -263.6,-22.52 509.36,-726.9 447.11,856.33 -241.97,-20.67" /><path
         id="path56"
         style="fill:#f0d1a3;fill-opacity:1;fill-rule:nonzero;stroke:none"
         d="m 4974.59,8169.43 68.75,393.84 c 45.26,259.22 -62.13,536.03 -413.83,504.03 -12.8,-1.16 -25.17,-0.2 -36.79,-1.19 -167.36,-14.31 -291.44,-161.57 -277.14,-328.93 l 6.42,-75.06 c 2.94,-34.43 -7.09,-68.72 -28.12,-96.14 l -54.62,-71.22 c -6.03,-7.87 -0.68,-19.28 9.24,-19.63 6.54,-0.23 13.8,-0.51 20.98,-0.79 23.2,-0.93 42.09,-18.97 44.06,-42.11 l 12.58,-147.12 c 3.76,-44.01 42.48,-76.62 86.48,-72.86 l 70.93,6.06 c 68.53,5.85 128.83,-44.95 134.68,-113.47 l 8.13,-95.07 149.04,-120.69 199.21,280.35" /><path
         id="path58"
         style="fill:#b53455;fill-opacity:1;fill-rule:nonzero;stroke:none"
         d="m 4763.53,7888.07 -153.43,47.51 c -36.22,11.22 -72.27,-17.81 -69.05,-55.59 2.99,-34.9 38.17,-57.54 71.17,-45.79 l 151.31,53.87" /><path
         id="path60"
         style="fill:#b53455;fill-opacity:1;fill-rule:nonzero;stroke:none"
         d="m 4775.38,7889.08 143.14,72.85 c 33.79,17.21 74.25,-5.28 77.48,-43.07 2.98,-34.89 -27.85,-63.17 -62.36,-57.19 l -158.26,27.41" /><path
         id="path62"
         style="fill:#f8ebd5;fill-opacity:1;fill-rule:nonzero;stroke:none"
         d="m 3892.53,8115.34 c -48.04,0 -88.88,36.8 -93.04,85.54 -4.4,51.43 33.74,96.7 85.18,101.1 2.71,0.23 5.4,0.34 8.07,0.34 48.02,0 88.87,-36.79 93.04,-85.53 4.39,-51.44 -33.75,-96.71 -85.19,-101.1 -2.71,-0.23 -5.4,-0.35 -8.06,-0.35" /><path
         id="path64"
         style="fill:#e295a2;fill-opacity:1;fill-rule:nonzero;stroke:none"
         d="m 3892.53,8115.34 c -48.04,0 -88.88,36.8 -93.04,85.54 -4.4,51.43 33.74,96.7 85.18,101.1 2.71,0.23 5.4,0.34 8.07,0.34 48.02,0 88.87,-36.79 93.04,-85.53 4.39,-51.44 -33.75,-96.71 -85.19,-101.1 -2.71,-0.23 -5.4,-0.35 -8.06,-0.35" /><path
         id="path66"
         style="fill:#73d0d4;fill-opacity:1;fill-rule:nonzero;stroke:none"
         d="m 2918.4,6219.37 445.11,537.55" /><path
         id="path68"
         style="fill:#d3ac82;fill-opacity:1;fill-rule:nonzero;stroke:none"
         d="m 2929.95,6209.8 445.11,537.55 c 5.28,6.38 4.39,15.84 -1.99,21.12 -6.38,5.28 -15.83,4.39 -21.12,-1.99 l -445.11,-537.55 c -5.28,-6.38 -4.39,-15.83 1.99,-21.12 6.38,-5.28 15.84,-4.39 21.12,1.99" /><path
         id="path70"
         style="fill:#ffffff;fill-opacity:1;fill-rule:nonzero;stroke:none"
         d="m 3714.68,6967.92 -170.91,-327.82 167.22,-75.83 162.46,330.25 -158.77,73.4" /><path
         id="path72"
         style="fill:#2f2b2a;fill-opacity:1;fill-rule:nonzero;stroke:none"
         d="m 5239.83,7917.78 77.86,-911.13 493.83,839.16 z" /><path
         id="path74"
         style="fill:#ffffff;fill-opacity:1;fill-rule:nonzero;stroke:none"
         d="m 5556.09,6133.87 c 1.86,-21.71 -14.24,-40.81 -35.94,-42.66 -21.7,-1.86 -40.8,14.24 -42.66,35.94 -1.86,21.71 14.24,40.81 35.94,42.66 21.71,1.86 40.81,-14.24 42.66,-35.94" /><path
         id="path76"
         style="fill:#ffffff;fill-opacity:1;fill-rule:nonzero;stroke:none"
         d="m 5675.36,5991.35 c 1.86,-21.71 -14.24,-40.81 -35.94,-42.66 -21.71,-1.86 -40.81,14.24 -42.66,35.94 -1.86,21.71 14.24,40.81 35.94,42.66 21.71,1.86 40.81,-14.24 42.66,-35.94" /><path
         id="path78"
         style="fill:#b81d23;fill-opacity:1;fill-rule:nonzero;stroke:none"
         d="m 4182.32,4270.9 10.2,-1825.13 14.05,0.08 -10.2,1825.13" /><path
         id="path80"
         style="fill:#b81d23;fill-opacity:1;fill-rule:nonzero;stroke:none"
         d="m 6012.59,5701 c -0.03,-0.23 -0.53,-5.46 -0.53,-14.22 0.05,-24.77 3.86,-77.98 34.81,-126 15.48,-23.97 37.89,-46.53 69.66,-62.9 31.78,-16.38 72.76,-26.57 125.28,-26.56 12.29,0 25.21,0.56 38.8,1.72 l -1.47,17.26 c -13.14,-1.12 -25.57,-1.65 -37.33,-1.65 -50.31,0.01 -88.37,9.71 -117.33,24.64 -43.38,22.4 -66.89,56.68 -79.95,90.22 -13.01,33.48 -15.15,66.07 -15.14,83.27 0,4.05 0.12,7.25 0.23,9.4 0.06,1.08 0.11,1.89 0.15,2.43 l 0.06,0.72 -17.24,1.67" /><path
         id="path82"
         style="fill:#4549a0;fill-opacity:1;fill-rule:nonzero;stroke:none"
         d="m 4283.36,7788.35 514.84,-641.78 427.46,771.23 273.51,-574.18 c 0,0 -324.66,-868.56 -329.23,-886.84 -4.57,-18.28 -767.19,-65.56 -767.19,-65.56 l -119.39,1397.13" /><path
         id="path84"
         style="fill:#2f2b2a;fill-opacity:1;fill-rule:nonzero;stroke:none"
         d="m 5144.27,6691.95 -846.03,1107.76 -29.76,-22.73 846.03,-1107.76" /><path
         id="path86"
         style="fill:#b53455;fill-opacity:1;fill-rule:nonzero;stroke:none"
         d="m 5239.83,7917.78 61.32,-717.52 c 0,0 239.41,-884.65 683.09,-1142.93 -5.23,7.33 -272.26,1868.3 -272.26,1868.3 0,0 -155.53,46.47 -472.15,-7.85" /><path
         id="path88"
         style="fill:#191615;fill-opacity:1;fill-rule:nonzero;stroke:none"
         d="m 3951.09,8622.63 c 0,0 93.97,-316.61 -366.18,-407.76 -21.64,-24.06 -42.31,-442.12 -42.31,-442.12 l -441.66,369.75 57.34,495.28 397.54,189.14" /><path
         id="path90"
         style="fill:#cc4669;fill-opacity:1;fill-rule:nonzero;stroke:none"
         d="m 3873.86,6908.65 -161.87,-337.21 1250.95,-434.71 c 152.73,-53.07 320.96,16.99 390.88,162.77 l 880.8,1158.26 c 0,0 -81.81,430.73 -606.14,488.64 C 5629.65,7946.29 5022,6574.82 5022,6574.82 l -1148.14,333.83" /><path
         id="path92"
         style="fill:#8f8c8b;fill-opacity:1;fill-rule:nonzero;stroke:none"
         d="m 3545.29,7652.03 -382.21,-122.96 c -77.99,-25.08 -136.72,-89.8 -154.15,-169.84 l -63.37,-290.94 409.08,-74.37 297.99,537.39 -107.34,120.72" /><path
         id="path94"
         style="fill:#8f8c8b;fill-opacity:1;fill-rule:nonzero;stroke:none"
         d="m 3940.87,7713.48 357.92,-105.7 76.1,-848.92 z" /><path
         id="path96"
         style="fill:#191615;fill-opacity:1;fill-rule:nonzero;stroke:none"
         d="m 3521.2,9152.34 c -25.66,6.19 -916.46,-72.26 -1556.18,-129.7 -355.35,-31.91 -618.02,-345.07 -587.65,-700.56 30.47,-356.57 344.23,-620.93 700.8,-590.46 l 1370.95,117.16 72.08,1303.56" /><path
         id="path98"
         style="fill:#f8ebd5;fill-opacity:1;fill-rule:nonzero;stroke:none"
         d="m 4517.3,8341.38 c -48.02,0 -88.87,36.79 -93.04,85.53 -4.4,51.44 33.74,96.7 85.19,101.1 2.7,0.23 5.4,0.34 8.07,0.34 48.03,0 88.87,-36.79 93.03,-85.52 4.4,-51.45 -33.74,-96.71 -85.18,-101.11 -2.71,-0.23 -5.4,-0.34 -8.07,-0.34" /><path
         id="path100"
         style="fill:#e295a2;fill-opacity:1;fill-rule:nonzero;stroke:none"
         d="m 4517.3,8341.38 c -48.02,0 -88.87,36.79 -93.04,85.53 -4.4,51.44 33.74,96.7 85.19,101.1 2.7,0.23 5.4,0.34 8.07,0.34 48.03,0 88.87,-36.79 93.03,-85.52 4.4,-51.45 -33.74,-96.71 -85.18,-101.11 -2.71,-0.23 -5.4,-0.34 -8.07,-0.34" /><path
         id="path102"
         style="fill:#9896d3;fill-opacity:1;fill-rule:nonzero;stroke:none"
         d="m 5402.47,8754.53 c -1.15,0.7 -2.31,1.39 -3.46,2.09 -72.69,43.86 -124.64,114.91 -146.08,197.06 -52.45,200.89 -230.34,353.3 -448.67,363.57 -192.42,9.05 -363.99,-94.78 -450.67,-253.08 -3.56,-3.93 -51.51,-93.96 -48.19,-128.86 -5.83,-26.58 -9.63,-53.97 -10.96,-82.07 -8.72,-185.45 157.81,-354.86 350.22,-446.32 96.32,-45.78 166.01,-132.2 192.06,-235.62 1.03,-4.09 2.12,-8.19 3.28,-12.3 16.11,-276.12 242.02,-500.27 526.51,-506.16 285.18,-5.9 527.78,215.71 547.71,500.24 18.89,269.85 -163.58,505.08 -417.07,562.66 -33.44,7.6 -65.29,21.12 -94.68,38.79" /><path
         id="path104"
         style="fill:#8f8c8b;fill-opacity:1;fill-rule:nonzero;stroke:none"
         d="m 3666.13,2537.91 c 0,0 -1788.43,299.96 -2547.14,3075.17 -78.32,286.47 46.11,589.85 302.87,739.09 328.59,191 747.96,62.41 917.95,-277.54 219.63,-439.25 715.18,-877.26 1219.47,-415.53 38.9,-27.57 -397.92,-1608.68 -397.92,-1608.68 l 504.77,-1512.51" /><path
         id="path106"
         style="fill:#cc4669;fill-opacity:1;fill-rule:nonzero;stroke:none"
         d="M 5365.48,5946.7 4152.29,4959.39 c -98.56,-81.84 -160.02,-181.76 -198.34,-274.69 -47.22,-114.49 -66.67,-238.52 -59.02,-362.13 l 121.21,-1956.9 355.2,30.35 116.56,2055.35 1686.51,777.04 0.02,0.03 c 217.47,96.5 -808.95,718.26 -808.95,718.26" /><path
         id="path108"
         style="fill:#ffffff;fill-opacity:1;fill-rule:nonzero;stroke:none"
         d="m 4197.01,2391.08 c 0.82,-9.62 16.72,-195.61 16.72,-195.61 0,0 203.94,-5.18 202.02,17.27 -1.92,22.44 -16.72,195.61 -16.72,195.61 l -202.02,-17.27" /><path
         id="path110"
         style="fill:#2f2b2a;fill-opacity:1;fill-rule:nonzero;stroke:none"
         d="m 4475.93,2151 -61.76,80.15 -202.36,-13.22 c 1.69,-19.73 -13.99,-420 -33.25,-592.66 -2.43,-21.75 22.1,-36 39.8,-23.14 67.49,49.03 184.17,162.35 200.73,420.32 3.48,-2.93 48.34,-13.36 48.34,-13.36 l 8.5,141.91" /><path
         id="path112"
         style="fill:#1a1716;fill-opacity:1;fill-rule:nonzero;stroke:none"
         d="m 4275.83,2217.7 c 0,-0.01 0.25,-2.66 0.62,-7.79 1.13,-15.38 3.4,-52.55 3.4,-102.77 0,-67.42 -4.09,-158.36 -20.47,-251.57 -0.67,-3.83 1.88,-7.47 5.71,-8.14 3.82,-0.67 7.46,1.88 8.14,5.71 16.56,94.34 20.68,186.01 20.68,254 0,67.52 -4.06,111.69 -4.08,111.85 -0.36,3.87 -3.78,6.71 -7.64,6.36 -3.87,-0.36 -6.71,-3.78 -6.36,-7.65" /><path
         id="path114"
         style="fill:#1a1716;fill-opacity:1;fill-rule:nonzero;stroke:none"
         d="m 4187.56,1706.57 c 0.52,0.08 12.52,1.53 27.22,8.85 14.65,7.29 32.16,20.72 42.39,44.36 l -6.45,2.79 -7.01,-0.6 c 0.03,-0.16 0.06,-1.96 0.12,-4.2 0.24,-8.08 1.11,-24.26 8.51,-40.5 3.71,-8.11 9.11,-16.26 16.91,-23.2 7.79,-6.94 17.96,-12.58 30.8,-15.81 l 3.44,13.63 c -12.36,3.14 -21,8.58 -27.41,15.08 -9.59,9.73 -14.18,22.27 -16.32,33.22 -1.07,5.45 -1.53,10.45 -1.74,14.39 -0.1,1.98 -0.15,3.68 -0.18,5.07 -0.03,1.43 -0.03,2.42 -0.12,3.53 l -2.39,27.74 -11.06,-25.55 c -8.66,-19.96 -23.15,-31.04 -35.77,-37.37 -6.29,-3.14 -12.08,-5.03 -16.22,-6.12 -2.08,-0.55 -3.74,-0.89 -4.86,-1.1 l -1.23,-0.21 -0.28,-0.04 h -0.03 l 1.68,-13.96" /><path
         id="path116"
         style="fill:#1a1716;fill-opacity:1;fill-rule:nonzero;stroke:none"
         d="m 4253.05,2042.46 77.75,6.64 c 3.87,0.33 6.74,3.73 6.41,7.6 -0.33,3.87 -3.74,6.73 -7.6,6.4 l -77.76,-6.64 c -3.87,-0.33 -6.73,-3.73 -6.4,-7.6 0.33,-3.87 3.73,-6.73 7.6,-6.4" /><path
         id="path118"
         style="fill:#1a1716;fill-opacity:1;fill-rule:nonzero;stroke:none"
         d="m 4243.95,2002.45 77.75,6.64 c 3.87,0.33 6.74,3.73 6.41,7.6 -0.33,3.87 -3.74,6.73 -7.61,6.4 l -77.74,-6.64 c -3.87,-0.33 -6.74,-3.73 -6.41,-7.6 0.33,-3.87 3.73,-6.73 7.6,-6.4" /><path
         id="path120"
         style="fill:#1a1716;fill-opacity:1;fill-rule:nonzero;stroke:none"
         d="m 4237.64,1962.67 77.75,6.64 c 3.87,0.33 6.74,3.73 6.41,7.6 -0.33,3.87 -3.74,6.74 -7.6,6.41 l -77.76,-6.64 c -3.87,-0.33 -6.73,-3.74 -6.4,-7.6 0.33,-3.87 3.73,-6.74 7.6,-6.41" /><path
         id="path122"
         style="fill:#1a1716;fill-opacity:1;fill-rule:nonzero;stroke:none"
         d="m 4297.05,2206.32 1.46,-6.87 89.03,18.87 c 1.31,0.27 2.59,0.4 3.84,0.4 9.25,0 17.43,-7.11 18.24,-16.78 l 0.07,-1.63 c -0.01,-5.15 -2.09,-9.65 -5.46,-12.98 -3.37,-3.31 -7.96,-5.31 -12.82,-5.31 -1.75,0 -3.55,0.26 -5.39,0.82 l -87.09,26.43 -1.48,-4.87 4.18,2.89 c -0.63,0.93 -1.71,1.7 -2.7,1.98 l -1.48,-4.87 4.18,2.89 -4.16,-2.88 h 5.06 c 0,0.94 -0.26,1.94 -0.9,2.88 l -4.16,-2.88 h 5.06 -5.04 l 4.03,-3.02 c 0.72,0.97 1.01,2.01 1.01,3.02 h -5.04 l 4.03,-3.02 -4.07,3.05 1.05,-4.99 c 1.09,0.2 2.33,0.97 3.02,1.94 l -4.07,3.05 1.05,-4.99 -1.45,6.87 -1.45,6.88 c -2.11,-0.42 -4.12,-1.72 -5.33,-3.38 -1.24,-1.66 -1.79,-3.55 -1.79,-5.41 0,-1.73 0.49,-3.53 1.59,-5.12 1.08,-1.6 2.86,-2.91 4.78,-3.47 l 87.08,-26.44 c 3.16,-0.96 6.36,-1.42 9.48,-1.41 17.43,0.01 32.28,14.12 32.33,32.34 0,0.93 -0.03,1.87 -0.12,2.82 -1.48,17.09 -15.78,29.65 -32.24,29.65 -2.23,0 -4.49,-0.23 -6.76,-0.71 l -89.03,-18.87 1.46,-6.88" /><path
         id="path124"
         style="fill:#1a1716;fill-opacity:1;fill-rule:nonzero;stroke:none"
         d="m 4286.63,2202.52 -2.81,6.44 -83.45,-36.31 c -2.42,-1.05 -4.88,-1.53 -7.31,-1.53 -7.84,0.01 -15.23,5.08 -17.6,13.16 -0.53,1.79 -0.77,3.55 -0.77,5.25 0,4.88 2,9.46 5.32,12.83 3.33,3.36 7.83,5.45 12.96,5.45 l 1.78,-0.08 90.63,-8.47 0.47,5.09 -3.91,-3.26 c 0.79,-1 2.23,-1.75 3.44,-1.83 l 0.47,5.09 -3.91,-3.26 3.85,3.21 h -5.02 c 0.01,-1.13 0.35,-2.22 1.17,-3.21 l 3.85,3.21 h -5.02 5.09 l -4.32,2.67 -0.77,-2.67 h 5.09 l -4.32,2.67 4.29,-2.66 -2.04,4.64 -2.25,-1.98 4.29,-2.66 -2.04,4.64 0.03,0.01 2.81,-6.44 2.83,-6.44 c 1.64,0.71 3.11,1.99 4.03,3.49 0.93,1.5 1.34,3.15 1.34,4.73 -0.01,2.05 -0.67,4.07 -2.09,5.78 -1.39,1.73 -3.71,2.99 -6.06,3.18 l -90.61,8.46 c -1.03,0.1 -2.07,0.15 -3.1,0.15 -18.18,-0.05 -32.32,-14.87 -32.34,-32.34 0,-3.04 0.44,-6.15 1.35,-9.23 4.22,-14.25 17.21,-23.25 31.08,-23.24 4.31,0 8.71,0.87 12.92,2.7 l 83.62,36.39 -0.14,-0.07 -2.83,6.44" /><path
         id="path126"
         style="fill:#5c5455;fill-opacity:1;fill-rule:nonzero;stroke:none"
         d="m 4419.09,2022.45 -4.92,208.7 61.76,-80.15 -8.5,-141.91 -48.34,13.36" /><path
         id="path128"
         style="fill:#b81d23;fill-opacity:1;fill-rule:nonzero;stroke:none"
         d="m 4178.49,4279.39 10.2,-1825.14 14.06,0.08 -10.2,1825.14" /><path
         id="path130"
         style="fill:#f0d1a3;fill-opacity:1;fill-rule:nonzero;stroke:none"
         d="m 3704.27,6952.44 -266.67,136.3 -223.25,-144.76 -13.33,-186.67 233.33,10 127.7,-105.24 142.22,290.37" /></g></g></svg>