<?xml version="1.0" encoding="UTF-8" standalone="no"?>
<svg
   xmlns:dc="http://purl.org/dc/elements/1.1/"
   xmlns:cc="http://creativecommons.org/ns#"
   xmlns:rdf="http://www.w3.org/1999/02/22-rdf-syntax-ns#"
   xmlns:svg="http://www.w3.org/2000/svg"
   xmlns="http://www.w3.org/2000/svg"
   viewBox="0 0 889.45468 1293.6373"
   height="1293.6373"
   width="889.45465"
   xml:space="preserve"
   id="svg2"
   version="1.1"><metadata
     id="metadata8"><rdf:RDF><cc:Work
         rdf:about=""><dc:format>image/svg+xml</dc:format><dc:type
           rdf:resource="http://purl.org/dc/dcmitype/StillImage" /></cc:Work></rdf:RDF></metadata><defs
     id="defs6" /><g
     transform="matrix(1.3333333,0,0,-1.3333333,-318.36266,1293.6373)"
     id="g10"><g
       transform="scale(0.1)"
       id="g12"><path
         id="path14"
         style="fill:#4549a0;fill-opacity:1;fill-rule:nonzero;stroke:none"
         d="m 4517.85,8822.02 c 28.52,-311.41 475.63,-525.04 787.04,-496.53 110.88,10.16 369.2,288.38 340.68,599.79 -28.51,311.41 -304.08,540.75 -615.49,512.23 -311.41,-28.51 -540.74,-304.08 -512.23,-615.49" /><path
         id="path16"
         style="fill:#9896d3;fill-opacity:1;fill-rule:nonzero;stroke:none"
         d="M 2686.64,1014.74 2474.21,817.699 2387.72,563.5 2504.78,574.219 2502.72,0 2920.26,835.871 2686.64,1014.74" /><path
         id="path18"
         style="fill:#f0d1a3;fill-opacity:1;fill-rule:nonzero;stroke:none"
         d="M 3000.26,2161.75 2580.82,624.359 c -13.55,-49.976 11.13,-102.418 58.3,-123.82 v 0 c 51.73,-23.469 112.75,-1.828 138.13,48.992 l 653.36,1298.219 -430.35,314" /><path
         id="path20"
         style="fill:#ffffff;fill-opacity:1;fill-rule:nonzero;stroke:none"
         d="m 8572.1,2383.97 317.67,-86.76 5.75,-321.03 -98.76,71.75 -293.31,85.92 68.65,250.12" /><path
         id="path22"
         style="fill:#cc4669;fill-opacity:1;fill-rule:nonzero;stroke:none"
         d="m 9058.63,2260.65 -1.77,-238.96 -76.75,11.88 52.18,-569.75 c 0,0 -117.1,79.48 -136.34,250.99 -6.08,54.21 -19.75,107.4 -43.44,156.54 -22.69,47.04 -53.51,96.15 -89.05,114.02 -23.15,7.26 0.91,80.47 108.78,64.34 -10.23,8.52 17.53,247.5 17.53,247.5 l 168.86,-36.56" /><path
         id="path24"
         style="fill:#cc4669;fill-opacity:1;fill-rule:nonzero;stroke:none"
         d="m 9058.63,2260.65 -1.77,-238.96 -76.75,11.88 -22.79,249.02 101.31,-21.94" /><path
         id="path26"
         style="fill:#2f2b2a;fill-opacity:1;fill-rule:nonzero;stroke:none"
         d="m 5505.7,7873.33 387.18,35.45 c 477,43.69 899.1,-307.6 942.78,-784.6 v 0 c 18.69,-204.09 142.51,-383.63 326.62,-473.63 l 808.67,-395.3 c 657.39,-321.34 919.77,-1121.97 580.1,-1770.07 v 0 C 8233.53,3879.35 7500.63,3623.52 6875.08,3900.16 l -235.95,104.34 -1974.05,3209.69 840.62,659.14" /><path
         id="path28"
         style="fill:#191615;fill-opacity:1;fill-rule:nonzero;stroke:none"
         d="m 7088.12,5502.44 c 0,0 1583.37,-46.96 1363.75,-1177.37 8.78,12.25 -586.49,-956.64 -1812.74,-320.57 l 448.99,1497.94" /><path
         id="path30"
         style="fill:#2f2b2a;fill-opacity:1;fill-rule:nonzero;stroke:none"
         d="M 8510.53,2053.61 8610.89,2400.43 6376.93,3311.5 7027.97,5078.14 5891.7,4602.89 5657.52,3473.15 6436.3,2582.97 c 0,0 841.42,-532.15 2074.23,-529.36" /><path
         id="path32"
         style="fill:none;stroke:#191615;stroke-width:9.79763985;stroke-linecap:butt;stroke-linejoin:miter;stroke-miterlimit:10;stroke-dasharray:none;stroke-opacity:1"
         d="M 6421.77,4621.57 6175,3646.12" /><path
         id="path34"
         style="fill:none;stroke:#191615;stroke-width:10.3760004;stroke-linecap:butt;stroke-linejoin:miter;stroke-miterlimit:10;stroke-dasharray:none;stroke-opacity:1"
         d="M 8566.43,2246.79 6329.99,2969.4" /><path
         id="path36"
         style="fill:#f0d1a3;fill-opacity:1;fill-rule:nonzero;stroke:none"
         d="m 6013.65,4060.47 c 0,0 267.71,-425.98 615.31,-1648.58 0,0 344.35,-1035.78 575.75,-1368.04 16.27,-26.23 -266.78,-38.29 -404.54,406.51 -0.61,6.66 -751.35,657.91 -788.62,1439.58 -3.41,71.52 -18.92,142.05 -46.63,208.07 -29.36,69.89 -80.75,155.54 -175.11,228.11 -14.37,5.62 -228.85,228.55 -228.85,228.55 l 452.69,505.8" /><path
         id="path38"
         style="fill:#9896d3;fill-opacity:1;fill-rule:nonzero;stroke:none"
         d="m 6800.17,1450.36 c 0,0 78.66,-255.36 404.54,-406.51 l 150.14,-364.389 -541.92,420.899 -125.69,-83.94 -92.21,267.64 205.14,166.3" /><path
         id="path40"
         style="fill:#9896d3;fill-opacity:1;fill-rule:nonzero;stroke:none"
         d="M 2555.6,3258.64 C 2653.66,2187.77 3601.26,1399.16 4672.12,1497.22 5742.98,1595.28 6531.6,2542.88 6433.53,3613.74 6335.47,4684.6 5387.88,5473.21 4317.02,5375.16 3246.15,5277.09 2457.54,4329.5 2555.6,3258.64" /><path
         id="path42"
         style="fill:#cc4669;fill-opacity:1;fill-rule:nonzero;stroke:none"
         d="m 2883.76,8561.26 c 34.09,-372.26 363.51,-646.41 735.78,-612.32 372.27,34.09 646.41,363.5 612.33,735.77 -34.09,372.27 -363.51,646.42 -735.78,612.33 -372.27,-34.09 -646.42,-363.5 -612.33,-735.78" /><path
         id="path44"
         style="fill:#191615;fill-opacity:1;fill-rule:nonzero;stroke:none"
         d="m 3852.99,6934.01 203.36,691.72 430.32,98.85 66.51,-726.45 -700.19,-64.12" /><path
         id="path46"
         style="fill:#f0d1a3;fill-opacity:1;fill-rule:nonzero;stroke:none"
         d="m 4505.86,7514.95 -320.62,59.41 c -94.47,17.5 -165.79,95.69 -174.55,191.37 v 0 c -9.11,99.48 51.65,192.09 146.54,223.34 l 24.42,8.03 c 36.17,11.92 59.33,47.22 55.86,85.15 l -14.05,153.47 c -2.93,32 11.36,63.15 37.51,81.8 l 7.43,5.29 c 12.67,9.03 14.16,27.27 3.15,38.25 l -35.66,35.53 c -25.36,25.27 -43.9,56.86 -51.93,91.75 -39.13,170.06 -198.9,289.27 -377.5,272.91 l -115.91,-10.61 c -285.38,-26.13 -495.54,-278.67 -469.42,-564.05 l 12.19,-132.99 393.01,-352.36 11.57,-126.4 c 5.6,-61.06 -152.14,-143.41 -293.14,-157.12 -376.74,-36.62 -396.5,-538.97 -396.5,-538.97 l 1597.64,198.94 -40.04,437.26" /><path
         id="path48"
         style="fill:#f0d1a3;fill-opacity:1;fill-rule:nonzero;stroke:none"
         d="m 3720.05,6419.07 -663.46,-937.61 c -88.49,-125.06 -256.91,-163.48 -390.88,-89.17 v 0 c -140.75,78.08 -194.94,253.24 -122.85,397.16 l 486.02,1322.53 381.86,-81.61 309.31,-611.3" /><path
         id="path50"
         style="fill:#9896d3;fill-opacity:1;fill-rule:nonzero;stroke:none"
         d="m 3438,6648.97 c 0,0 -89.77,184.35 -19.33,331.65 63.88,133.56 123.88,268.94 171.18,409.22 l 40.46,171.19 459.05,74.17 486.5,-453.17 c -15.04,-1.38 100.26,-1094.93 100.26,-1094.93 l 1138.89,-75.87 c 0,0 252.17,-432.13 261.53,-438.53 9.35,-6.41 -108.11,-328.82 -108.11,-328.82 L 4871.8,4241.33 4312.51,3034.09 l -26.63,-176.33 -465.73,-42.64 c -1137.5,-104.16 -390.86,2253.69 -390.86,2253.69 294.89,148.03 466.17,532.02 403.25,855.93 l -81.11,417.59 -313.43,306.64" /><path
         id="path52"
         style="fill:#413b3b;fill-opacity:1;fill-rule:nonzero;stroke:none"
         d="M 5725.97,5966.8 5761.1,5583.16 4358.85,4427.78 c -113.91,-95.76 -184.59,-212.25 -228.45,-320.47 -54.03,-133.31 -75.76,-277.52 -65.99,-421.04 l 154.58,-2272.24 412.37,37.77 120.91,2388.26 1953.53,914.46 0.02,0.04 c 251.93,113.63 416.08,378.95 383.33,736.7 l -700.48,194.55 -662.7,280.99" /><path
         id="path54"
         style="fill:#8f8c8b;fill-opacity:1;fill-rule:nonzero;stroke:none"
         d="m 5671.85,6058.88 c 0,0 288.95,-1078.46 1416.27,-556.44 v 0 c -887.01,128.28 -964.66,673.46 -1155.69,1230.27 l -32.78,95.53 -227.8,-769.36" /><path
         id="path56"
         style="fill:#ffffff;fill-opacity:1;fill-rule:nonzero;stroke:none"
         d="m 5315.84,7855.95 -28.96,316.15 -229.42,-327.05 -294.97,237.45 30.21,-329.9 -306.03,-28.02 596.77,-840.76 513.32,997.85 -280.92,-25.72" /><path
         id="path58"
         style="fill:#ecbd7f;fill-opacity:1;fill-rule:nonzero;stroke:none"
         d="m 5286.88,8172.1 77.09,457.96 c 50.74,301.42 -75.95,622.2 -484.24,582.56 -14.87,-1.45 -29.24,-0.42 -42.73,-1.66 v 0 c -194.3,-17.79 -337.39,-189.73 -319.6,-384.02 l 7.98,-87.14 c 3.66,-39.98 -7.74,-79.88 -31.98,-111.88 l -62.94,-83.11 c -6.95,-9.18 -0.65,-22.39 10.86,-22.73 7.61,-0.22 16.04,-0.5 24.38,-0.78 26.96,-0.91 49.03,-21.73 51.49,-48.59 l 15.64,-170.81 c 4.68,-51.08 49.88,-88.7 100.96,-84.02 l 82.36,7.54 c 79.55,7.28 149.95,-51.3 157.24,-130.86 l 10.1,-110.37 173.97,-139.14 229.42,327.05" /><path
         id="path60"
         style="fill:#2f2b2a;fill-opacity:1;fill-rule:nonzero;stroke:none"
         d="m 5043.72,7843.79 -178.56,54.11 c -42.16,12.77 -83.83,-21.2 -79.81,-65.06 v 0 c 3.71,-40.51 44.73,-66.57 82.98,-52.69 l 175.39,63.64" /><path
         id="path62"
         style="fill:#2f2b2a;fill-opacity:1;fill-rule:nonzero;stroke:none"
         d="m 5057.46,7845.05 165.76,85.64 c 39.13,20.22 86.29,-5.62 90.3,-49.48 v 0 c 3.71,-40.52 -31.9,-73.59 -72.03,-66.89 l -184.03,30.73" /><path
         id="path64"
         style="fill:#cc4669;fill-opacity:1;fill-rule:nonzero;stroke:none"
         d="m 4137.97,8220.15 c 5.47,-59.73 -38.51,-112.57 -98.23,-118.04 -59.72,-5.47 -112.57,38.51 -118.04,98.24 -5.47,59.72 38.51,112.57 98.24,118.03 59.72,5.47 112.57,-38.51 118.03,-98.23" /><path
         id="path66"
         style="fill:#73d0d4;fill-opacity:1;fill-rule:nonzero;stroke:none"
         d="m 2912.22,5892.48 513.24,627.53" /><path
         id="path68"
         style="fill:none;stroke:#d3ac82;stroke-width:30;stroke-linecap:round;stroke-linejoin:miter;stroke-miterlimit:10;stroke-dasharray:none;stroke-opacity:1"
         d="m 2912.22,5892.48 513.24,627.53" /><path
         id="path70"
         style="fill:#ffffff;fill-opacity:1;fill-rule:nonzero;stroke:none"
         d="m 3831.89,6767.58 -196.22,-381.98 194.77,-86.91 186.38,384.75 -184.93,84.14" /><path
         id="path72"
         style="fill:#2f2b2a;fill-opacity:1;fill-rule:nonzero;stroke:none"
         d="m 5596.76,7881.67 96.86,-1057.8 567.7,978.22 z" /><path
         id="path74"
         style="fill:#2f2b2a;fill-opacity:1;fill-rule:nonzero;stroke:none"
         d="m 5976.69,5811.75 c 2.31,-25.2 -16.25,-47.49 -41.45,-49.8 -25.2,-2.31 -47.5,16.25 -49.8,41.45 -2.32,25.2 16.25,47.5 41.44,49.8 25.21,2.31 47.5,-16.25 49.81,-41.45" /><path
         id="path76"
         style="fill:#2f2b2a;fill-opacity:1;fill-rule:nonzero;stroke:none"
         d="m 6116.24,5647.05 c 2.3,-25.2 -16.25,-47.5 -41.45,-49.81 -25.2,-2.3 -47.5,16.25 -49.81,41.45 -2.31,25.2 16.25,47.5 41.45,49.81 25.2,2.31 47.5,-16.25 49.81,-41.45" /><path
         id="path78"
         style="fill:none;stroke:#2f2b2a;stroke-width:16.32939911;stroke-linecap:butt;stroke-linejoin:miter;stroke-miterlimit:10;stroke-dasharray:none;stroke-opacity:1"
         d="m 4402.25,3638.2 24.71,-2119.95" /><path
         id="path80"
         style="fill:none;stroke:#2f2b2a;stroke-width:20.12989998;stroke-linecap:butt;stroke-linejoin:miter;stroke-miterlimit:10;stroke-dasharray:none;stroke-opacity:1"
         d="m 6520.02,5311.26 c 0,0 -25.64,-281.98 301.99,-251.98" /><path
         id="path82"
         style="fill:#8f8c8b;fill-opacity:1;fill-rule:nonzero;stroke:none"
         d="m 4486.67,7724.58 602.54,-741.85 508.61,901.07 304.22,-667.23 c 0,0 -370.99,-1011.18 -376.16,-1032.45 -5.19,-21.27 -890.69,-81.56 -890.69,-81.56 l -148.52,1622.02" /><path
         id="path84"
         style="fill:none;stroke:#413b3b;stroke-width:16.32939911;stroke-linecap:butt;stroke-linejoin:miter;stroke-miterlimit:10;stroke-dasharray:none;stroke-opacity:1"
         d="M 5477.19,6443.8 4486.67,7724.58" /><path
         id="path86"
         style="fill:#191615;fill-opacity:1;fill-rule:nonzero;stroke:none"
         d="m 5596.76,7881.67 76.28,-833.03 c 0,0 284.33,-1025.89 801.51,-1322.77 -6.12,8.48 -329.42,2168.23 -329.42,2168.23 0,0 -180.98,52.89 -548.37,-12.43" /><path
         id="path88"
         style="fill:#4549a0;fill-opacity:1;fill-rule:nonzero;stroke:none"
         d="m 4510.43,8887.1 c 121.11,11.09 381.33,-124.89 392.42,-246.01 l 8.87,-96.95 c 3.36,-36.61 35.76,-63.56 72.36,-60.21 v 0 c 36.6,3.36 63.56,35.74 60.2,72.35 l -7.08,77.31 c -3.56,39.01 25.16,73.53 64.17,77.11 v 0 c 39.01,3.57 73.52,-25.16 77.09,-64.17 l 20.8,-227.09 c 5.53,-60.41 49.25,-110.44 108.38,-124.01 v 0 l 93.39,500.82 c 49.65,266.23 -168.91,506.15 -438.61,481.45 l -75.65,-6.92 c -389.33,47.89 -376.34,-383.68 -376.34,-383.68" /><path
         id="path90"
         style="fill:#cc4669;fill-opacity:1;fill-rule:nonzero;stroke:none"
         d="m 4094.83,8691.31 c 0,0 111.38,-367.1 -422.48,-476.22 -24.96,-28.1 -46.02,-513.85 -46.02,-513.85 l -515.63,426.37 63.12,575.71 460.43,222.5" /><path
         id="path92"
         style="fill:#413b3b;fill-opacity:1;fill-rule:nonzero;stroke:none"
         d="m 4016.08,6691.52 -185.64,-392.83 1456.13,-496.13 c 177.77,-60.57 372.69,21.99 452.87,191.82 L 6781.21,7359.2 c 0,0 -124.88,486.54 -734.34,550.11 1.37,-0.13 -694.79,-1597.47 -694.79,-1597.47 l -1336,379.68" /><path
         id="path94"
         style="fill:#cc4669;fill-opacity:1;fill-rule:nonzero;stroke:none"
         d="m 3505.97,9248.86 c 25.12,-274.38 -176.94,-517.17 -451.32,-542.3 -274.37,-25.12 -517.17,176.94 -542.29,451.31 -25.13,274.38 176.93,517.17 451.31,542.3 274.38,25.12 517.17,-176.94 542.3,-451.31" /><path
         id="path96"
         style="fill:#413b3b;fill-opacity:1;fill-rule:nonzero;stroke:none"
         d="M 4017.2,6699.86 3831.55,6307.03 5287.68,5810.9 c 177.79,-60.57 372.7,21.99 452.88,191.82 l 1041.77,1364.82 c 0,0 -156.55,396.9 -766.02,460.47 1.37,-0.13 -663.11,-1507.83 -663.11,-1507.83 l -1336,379.68" /><path
         id="path98"
         style="fill:#f0d1a3;fill-opacity:1;fill-rule:nonzero;stroke:none"
         d="m 6014.99,3985.97 c 0,0 267.71,-352.73 615.3,-1575.33 0,0 344.35,-1035.78 575.76,-1368.04 16.26,-26.23 -266.79,-38.29 -404.54,406.51 -0.62,6.67 -751.35,657.92 -788.62,1439.58 -3.42,71.52 -18.92,142.05 -46.64,208.07 -29.35,69.89 -80.75,155.54 -175.1,228.11 -14.38,5.62 -197.45,228.55 -197.45,228.55 l 421.29,432.55" /><path
         id="path100"
         style="fill:#9896d3;fill-opacity:1;fill-rule:nonzero;stroke:none"
         d="m 6801.51,1449.11 c 0,0 78.65,-255.35 404.54,-406.51 l 150.13,-364.389 -541.93,420.899 -125.67,-83.94 -92.22,267.64 205.15,166.3" /><path
         id="path102"
         style="fill:#9896d3;fill-opacity:1;fill-rule:nonzero;stroke:none"
         d="M 6080.92,4059.15 5071.31,3061.46 c 107.89,0.72 963.57,487.91 1089.61,610.01 115.17,111.57 97.98,185.92 101.02,293.4 1.64,57.92 -16.23,109.39 -14.95,165.28 -41.35,2.22 -92.13,-12.58 -127.33,-34.59 -17.72,-11.09 -45.42,-56.21 -38.74,-36.41" /><path
         id="path104"
         style="fill:#ffffff;fill-opacity:1;fill-rule:nonzero;stroke:none"
         d="m 4327.07,1446.65 c 1.02,-11.17 20.79,-227.1 20.79,-227.1 0,0 236.93,-4.58 234.54,21.48 -2.39,26.06 -20.8,227.1 -20.8,227.1 l -234.53,-21.48" /><path
         id="path106"
         style="fill:#cc4669;fill-opacity:1;fill-rule:nonzero;stroke:none"
         d="m 4652.75,1169.75 -72.31,92.65 -234.97,-16.78 c 2.1,-22.9 -13.28,-487.96 -34.44,-688.659 -2.66,-25.262 25.92,-41.641 46.39,-26.59 78.05,57.418 212.79,189.879 230.2,489.649 4.07,-3.38 56.25,-15.19 56.25,-15.19 l 8.88,164.92" /><path
         id="path108"
         style="fill:none;stroke:#b81d23;stroke-width:16.32939911;stroke-linecap:round;stroke-linejoin:miter;stroke-miterlimit:10;stroke-dasharray:none;stroke-opacity:1"
         d="m 4427.97,1246.61 c 0,0 20.18,-205.57 -16.64,-422.93" /><path
         id="path110"
         style="fill:none;stroke:#b81d23;stroke-width:16.32939911;stroke-linecap:butt;stroke-linejoin:miter;stroke-miterlimit:10;stroke-dasharray:none;stroke-opacity:1"
         d="m 4319.89,659.57 c 0,0 52.36,6.61 73.99,57.399 0.68,-7.449 -3.04,-74.188 59.84,-89.656" /><path
         id="path112"
         style="fill:none;stroke:#b81d23;stroke-width:16.32939911;stroke-linecap:round;stroke-linejoin:miter;stroke-miterlimit:10;stroke-dasharray:none;stroke-opacity:1"
         d="m 4393.87,1050.22 90.27,8.26" /><path
         id="path114"
         style="fill:none;stroke:#b81d23;stroke-width:16.32939911;stroke-linecap:round;stroke-linejoin:miter;stroke-miterlimit:10;stroke-dasharray:none;stroke-opacity:1"
         d="m 4383.59,1003.67 90.26,8.27" /><path
         id="path116"
         style="fill:none;stroke:#b81d23;stroke-width:16.32939911;stroke-linecap:round;stroke-linejoin:miter;stroke-miterlimit:10;stroke-dasharray:none;stroke-opacity:1"
         d="m 4376.53,957.43 90.27,8.269" /><path
         id="path118"
         style="fill:none;stroke:#b81d23;stroke-width:16.32939911;stroke-linecap:round;stroke-linejoin:miter;stroke-miterlimit:10;stroke-dasharray:none;stroke-opacity:1"
         d="m 4444.57,1232.73 103.28,22.55 c 17.31,3.78 34.02,-8.45 35.63,-26.09 v 0 c 1.9,-20.75 -17.75,-36.87 -37.73,-30.94 l -101.34,30.1 c -2.25,0.66 -2.13,3.89 0.16,4.38 z" /><path
         id="path120"
         style="fill:none;stroke:#b81d23;stroke-width:16.32939911;stroke-linecap:round;stroke-linejoin:miter;stroke-miterlimit:10;stroke-dasharray:none;stroke-opacity:1"
         d="m 4432.49,1228.25 -96.68,-42.77 c -16.2,-7.16 -35.02,1.48 -40.13,18.45 v 0 c -6.02,19.95 10.01,39.67 30.77,37.86 l 105.32,-9.21 c 2.33,-0.21 2.86,-3.38 0.72,-4.33 z" /><path
         id="path122"
         style="fill:#cc4669;fill-opacity:1;fill-rule:nonzero;stroke:none"
         d="m 4587.62,1020.02 5.95,225.13 59.18,-75.4 -8.88,-164.92 -56.25,15.19" /><path
         id="path124"
         style="fill:#413b3b;fill-opacity:1;fill-rule:nonzero;stroke:none"
         d="M 5763.91,5584.97 4361.66,4429.59 c -113.91,-95.75 -184.59,-212.25 -228.45,-320.46 -54.03,-133.32 -75.76,-277.53 -66,-421.04 l 154.59,-2272.24 412.37,37.76 120.91,2388.26 1745.29,817.15 202.33,175.61 c -25.02,257.68 -938.79,750.34 -938.79,750.34" /><path
         id="path126"
         style="fill:none;stroke:#2f2b2a;stroke-width:16.32939911;stroke-linecap:butt;stroke-linejoin:miter;stroke-miterlimit:10;stroke-dasharray:none;stroke-opacity:1"
         d="m 4405.06,3640.02 24.71,-2119.96" /><path
         id="path128"
         style="fill:none;stroke:#b81d23;stroke-width:17.29339981;stroke-linecap:round;stroke-linejoin:miter;stroke-miterlimit:10;stroke-dasharray:none;stroke-opacity:1"
         d="m 8794.86,1972.2 47.04,57.12 c 11.09,13.47 31.69,13.61 42.97,0.28 v 0 c 14.07,-16.63 4.58,-42.27 -16.94,-45.71 z" /><path
         id="path130"
         style="fill:none;stroke:#b81d23;stroke-width:17.29339981;stroke-linecap:round;stroke-linejoin:miter;stroke-miterlimit:10;stroke-dasharray:none;stroke-opacity:1"
         d="m 8827.03,1902.28 58.59,21.97" /><path
         id="path132"
         style="fill:none;stroke:#b81d23;stroke-width:17.29339981;stroke-linecap:round;stroke-linejoin:miter;stroke-miterlimit:10;stroke-dasharray:none;stroke-opacity:1"
         d="m 8837.03,1865.99 58.58,21.97" /><path
         id="path134"
         style="fill:none;stroke:#b81d23;stroke-width:17.29339981;stroke-linecap:round;stroke-linejoin:miter;stroke-miterlimit:10;stroke-dasharray:none;stroke-opacity:1"
         d="m 8839,1830.05 58.58,21.97" /><path
         id="path136"
         style="fill:none;stroke:#b81d23;stroke-width:17.29339981;stroke-linecap:round;stroke-linejoin:miter;stroke-miterlimit:10;stroke-dasharray:none;stroke-opacity:1"
         d="m 8802.67,1977.15 -37.63,-63.71 c -8.89,-15.03 -29.21,-18.35 -42.42,-6.94 v 0 c -16.48,14.27 -11.05,41.06 9.67,47.8 z" /><path
         id="path138"
         style="fill:none;stroke:#b81d23;stroke-width:17.29339981;stroke-linecap:round;stroke-linejoin:miter;stroke-miterlimit:10;stroke-dasharray:none;stroke-opacity:1"
         d="m 8907.77,1662.63 c 0,0 29.95,-59.91 110.81,-44.92" /><path
         id="path140"
         style="fill:#ecbd7f;fill-opacity:1;fill-rule:nonzero;stroke:none"
         d="m 3794.27,6688.01 -224.93,113.95 -252.77,-125.03 -22.02,-185.84 233.55,-0.88 114.53,-88.88 151.64,286.68" /></g></g></svg>