<?xml version="1.0" encoding="UTF-8" standalone="no"?>
<svg
   xmlns:dc="http://purl.org/dc/elements/1.1/"
   xmlns:cc="http://creativecommons.org/ns#"
   xmlns:rdf="http://www.w3.org/1999/02/22-rdf-syntax-ns#"
   xmlns:svg="http://www.w3.org/2000/svg"
   xmlns="http://www.w3.org/2000/svg"
   viewBox="0 0 974.26138 1048.9921"
   height="1048.9921"
   width="974.26135"
   xml:space="preserve"
   id="svg2"
   version="1.1"><metadata
     id="metadata8"><rdf:RDF><cc:Work
         rdf:about=""><dc:format>image/svg+xml</dc:format><dc:type
           rdf:resource="http://purl.org/dc/dcmitype/StillImage" /></cc:Work></rdf:RDF></metadata><defs
     id="defs6" /><g
     transform="matrix(1.3333333,0,0,-1.3333333,-102.12506,1095.5941)"
     id="g10"><g
       transform="scale(0.1)"
       id="g12"><path
         id="path14"
         style="fill:#191615;fill-opacity:1;fill-rule:nonzero;stroke:none"
         d="m 5692.23,7720.59 c -5.8,-268.26 -229.18,-536.31 -497.44,-530.51 -268.27,5.81 -479.83,283.27 -474.03,551.54 5.81,268.26 227.99,481.02 496.25,475.22 268.26,-5.81 481.03,-227.99 475.22,-496.25" /><path
         id="path16"
         style="fill:#ffffff;fill-opacity:1;fill-rule:nonzero;stroke:none"
         d="m 7623.67,1768.8 258.8,-103.24 -25.78,-270.44 -60.23,56.5 -268.59,134.28 95.8,182.9" /><path
         id="path18"
         style="fill:#2f2b2a;fill-opacity:1;fill-rule:nonzero;stroke:none"
         d="m 8020.94,1618.73 -24.27,-200.73 -63.39,17.32 -10.48,-483.988 c 0,0 -90.86,77.988 -90.68,224.018 0.06,46.16 -6.36,92.17 -21.6,135.75 -14.58,41.71 -35.81,85.94 -63.98,104.34 -18.78,8.32 8.44,67.57 97.59,43.73 -7.79,8.13 38.34,206.39 38.34,206.39 l 138.47,-46.83" /><path
         id="path20"
         style="fill:#5c5455;fill-opacity:1;fill-rule:nonzero;stroke:none"
         d="m 8020.94,1618.73 -24.27,-200.73 -63.39,17.32 4.58,211.51 83.08,-28.1" /><path
         id="path22"
         style="fill:#191615;fill-opacity:1;fill-rule:nonzero;stroke:none"
         d="m 3936.73,6154.23 459.16,643.87 184.87,-4 -14.14,-653.5 -629.89,13.63" /><path
         id="path24"
         style="fill:#686262;fill-opacity:1;fill-rule:nonzero;stroke:none"
         d="m 5503.07,6823.62 348.3,-7.53 c 429.11,-9.29 769.44,-364.68 760.15,-793.79 v 0 c -3.97,-183.59 88.14,-355.95 242.97,-454.68 L 7534.56,5134 c 552.83,-352.49 705.59,-1091.83 337.71,-1634.55 v 0 C 7528.39,2992.12 6850.01,2838.36 6321,3147.85 l -199.53,116.74 -1433.41,3057.08 815.01,501.95" /><path
         id="path26"
         style="fill:#191615;fill-opacity:1;fill-rule:nonzero;stroke:none"
         d="m 6672.51,4552.91 c 0,0 1122.61,-161.19 1139.68,-898.38 4.19,-180.63 -82.89,-350.39 -229.32,-456.23 -256.44,-185.37 -767.89,-399.53 -1461.4,66.29 l 551.04,1288.32" /><path
         id="path28"
         style="fill:#413b3b;fill-opacity:1;fill-rule:nonzero;stroke:none"
         d="m 7540.41,1496.94 117.44,282 -1791.22,979 715.8,1423.14 -1000.58,-291.18 -304.62,-927.45 -5.48,-41.15 c -44.18,-331.34 127.64,-653.86 427.12,-802.37 474.39,-235.25 1207.8,-551.55 1841.54,-621.99" /><path
         id="path30"
         style="fill:#686262;fill-opacity:1;fill-rule:nonzero;stroke:none"
         d="M 5506.63,5103.92 5499.16,4758.8 4134,3871.74 c -111.09,-73.75 -185.79,-170.33 -235.77,-262.24 -61.57,-113.24 -95.48,-239.45 -101.28,-368.22 l -91.86,-2038.66 370.97,-8.02 348.85,2114.14 1831.66,616.88 0.02,0.04 c 235.78,75.71 408.73,295.36 415.7,617.2 l -604.01,243.95 -561.65,317.11" /><path
         id="path32"
         style="fill:#928fd0;fill-opacity:1;fill-rule:nonzero;stroke:none"
         d="m 5467.74,5191.36 c 0,0 148.34,-989.37 1204.77,-638.45 v 0 c -776.8,203.8 -790.86,697.03 -904.71,1212.08 l -19.53,88.36 -280.53,-661.99" /><path
         id="path34"
         style="fill:#191615;fill-opacity:1;fill-rule:nonzero;stroke:none"
         d="m 5332.27,6827.32 6.15,284.41 -237.3,-268.01 -238.64,241.2 -6.42,-296.78 -275.3,5.96 446.42,-808.83 557.81,836.58 -252.72,5.47" /><path
         id="path36"
         style="fill:#a35e35;fill-opacity:1;fill-rule:nonzero;stroke:none"
         d="m 5338.42,7111.73 114.89,399.95 c 75.62,263.25 -4.78,561.64 -372.3,567.58 -13.39,0.22 -26.08,2.58 -38.22,2.85 v 0 c -174.78,3.78 -319.55,-134.85 -323.33,-309.64 l -1.7,-78.39 c -0.78,-35.96 -14.96,-70.33 -39.77,-96.37 l -64.43,-67.64 c -7.12,-7.48 -2.84,-19.88 7.38,-21.34 6.74,-0.96 14.23,-2.06 21.62,-3.15 23.91,-3.54 41.45,-24.3 40.94,-48.47 l -3.33,-153.66 c -1,-45.95 35.45,-84.01 81.4,-85 l 74.09,-1.61 c 71.57,-1.55 128.32,-60.82 126.78,-132.39 l -2.16,-99.28 140.84,-141.45 237.3,268.01" /><path
         id="path38"
         style="fill:#adabaa;fill-opacity:1;fill-rule:nonzero;stroke:none"
         d="m 5088.76,6843.98 -153.51,66.22 c -36.24,15.63 -76.77,-10.41 -77.63,-49.87 v 0 c -0.78,-36.45 33.11,-63.79 68.56,-55.29 l 162.58,38.94" /><path
         id="path40"
         style="fill:#adabaa;fill-opacity:1;fill-rule:nonzero;stroke:none"
         d="m 5101.12,6843.72 156.23,59.5 c 36.89,14.05 76.26,-13.72 75.41,-53.18 v 0 c -0.79,-36.44 -35.84,-62.29 -70.88,-52.27 l -160.76,45.95" /><path
         id="path42"
         style="fill:#ffffff;fill-opacity:1;fill-rule:nonzero;stroke:none"
         d="m 3901.13,6008.18 -213.28,-320.27 164.63,-97.06 204.81,323.74 -156.16,93.59" /><path
         id="path44"
         style="fill:#f0d1a3;fill-opacity:1;fill-rule:nonzero;stroke:none"
         d="m 3700.45,6110.63 c -6.15,3.64 -12.54,6.88 -19.12,9.77 l -0.7,0.36 -0.02,-0.04 c -27.68,12.02 -58.76,17.24 -90.9,13.69 -98.34,-10.88 -169.23,-99.42 -158.35,-197.75 7.39,-66.71 50.53,-120.75 108.2,-145.24 0.03,-0.01 0.04,-0.05 0.06,-0.06 12.39,-4.71 148.23,-103.45 148.23,-103.45 l 213.28,320.27 -200.68,102.45" /><path
         id="path46"
         style="fill:#2f2b2a;fill-opacity:1;fill-rule:nonzero;stroke:none"
         d="m 5584.99,6821.85 -20.59,-951.58 604.23,813.61 z" /><path
         id="path48"
         style="fill:#2f2b2a;fill-opacity:1;fill-rule:nonzero;stroke:none"
         d="m 5714.2,4940.55 c -0.5,-22.66 -19.27,-40.64 -41.94,-40.15 -22.67,0.49 -40.65,19.26 -40.16,41.93 0.49,22.67 19.27,40.65 41.93,40.16 22.68,-0.49 40.66,-19.27 40.17,-41.94" /><path
         id="path50"
         style="fill:#2f2b2a;fill-opacity:1;fill-rule:nonzero;stroke:none"
         d="m 5821.81,4779.81 c -0.49,-22.66 -19.27,-40.64 -41.94,-40.15 -22.67,0.49 -40.65,19.27 -40.16,41.93 0.5,22.67 19.27,40.65 41.94,40.16 22.67,-0.49 40.65,-19.26 40.16,-41.94" /><path
         id="path52"
         style="fill:none;stroke:#2f2b2a;stroke-width:14.63189983;stroke-linecap:butt;stroke-linejoin:miter;stroke-miterlimit:10;stroke-dasharray:none;stroke-opacity:1"
         d="M 4092.89,3164.37 3900.78,1274.4" /><path
         id="path54"
         style="fill:none;stroke:#2f2b2a;stroke-width:18.03730011;stroke-linecap:butt;stroke-linejoin:miter;stroke-miterlimit:10;stroke-dasharray:none;stroke-opacity:1"
         d="m 6147.39,4440.07 c 0,0 -51.3,-248.47 243.43,-254.85" /><path
         id="path56"
         style="fill:#928fd0;fill-opacity:1;fill-rule:nonzero;stroke:none"
         d="m 4580.76,6794.1 461.54,-721.35 528.01,750.69 219.3,-624.59 c 0,0 -432.43,-862.82 -439.19,-881.23 -6.76,-18.42 -801.24,17.34 -801.24,17.34 l 31.58,1459.14" /><path
         id="path58"
         style="fill:#928fd0;fill-opacity:1;fill-rule:nonzero;stroke:none"
         d="M 5377.67,5549.85 4580.76,6794.1" /><path
         id="path60"
         style="fill:#2f2b2a;fill-opacity:1;fill-rule:nonzero;stroke:none"
         d="m 5584.99,6821.85 -16.22,-749.38 c 0,0 149.53,-942.11 580.02,-1258.67 -4.6,8.17 -74.31,1963.74 -74.31,1963.74 0,0 -155.8,65.37 -489.49,44.31" /><path
         id="path62"
         style="fill:#413b3b;fill-opacity:1;fill-rule:nonzero;stroke:none"
         d="m 4057.44,5921.86 -204.96,-331.01 1246.35,-588.78 c 152.16,-71.88 334.04,-18.06 422.58,125.05 l 992.14,1288.83 c 0,0 -125.33,327.73 -525.01,385.05 1.19,-0.25 -779.96,-1352.12 -779.96,-1352.12 l -1151.14,472.98" /><path
         id="path64"
         style="fill:#191615;fill-opacity:1;fill-rule:nonzero;stroke:none"
         d="m 4719.46,7772.47 131.4,-2.84 c 108.96,-2.36 195.37,-92.6 193.01,-201.55 l -1.89,-87.22 c -0.71,-32.93 25.4,-60.2 58.33,-60.91 v 0 c 32.93,-0.72 60.21,25.4 60.92,58.33 l 1.5,69.55 c 0.77,35.1 29.83,62.93 64.92,62.17 v 0 c 35.08,-0.77 62.92,-29.82 62.16,-64.92 l -4.42,-204.28 c -1.18,-54.35 32.7,-103.3 83.98,-121.37 v 0 l 133.73,436.48 c 71.08,232.02 -99.29,467.7 -341.9,472.95 l -68.05,1.47 c -202.01,4.38 -369.32,-155.84 -373.69,-357.86 v 0" /><path
         id="path66"
         style="fill:none;stroke:#191615;stroke-width:8.77917004;stroke-linecap:butt;stroke-linejoin:miter;stroke-miterlimit:10;stroke-dasharray:none;stroke-opacity:1"
         d="M 5990.26,3835.93 5672.03,2992.38" /><path
         id="path68"
         style="fill:none;stroke:#191615;stroke-width:8.77917004;stroke-linecap:butt;stroke-linejoin:miter;stroke-miterlimit:10;stroke-dasharray:none;stroke-opacity:1"
         d="m 7605.83,1654.02 -1811.3,820.79" /><path
         id="path70"
         style="fill:#b81d23;fill-opacity:1;fill-rule:nonzero;stroke:none"
         d="m 1169.33,1908.49 -263.025,-91.94 14.05,-271.3 50.918,56.45 276.477,94.8 -78.42,211.99" /><path
         id="path72"
         style="fill:#2f2b2a;fill-opacity:1;fill-rule:nonzero;stroke:none"
         d="m 765.938,1775.75 15.562,-201.59 64.082,14.55 -10.473,-483.98 c 0,0 94.149,73.99 100.286,219.88 1.941,46.12 10.347,91.81 27.453,134.68 16.382,41.05 39.492,84.32 68.432,101.49 19.13,7.49 -5.5,67.87 -95.6,47.9 8.14,7.79 -29.375,207.87 -29.375,207.87 l -140.367,-40.8" /><path
         id="path74"
         style="fill:#5c5455;fill-opacity:1;fill-rule:nonzero;stroke:none"
         d="m 765.938,1775.75 15.562,-201.59 64.082,14.55 4.574,211.51 -84.218,-24.47" /><path
         id="path76"
         style="fill:#2f2b2a;fill-opacity:1;fill-rule:nonzero;stroke:none"
         d="m 3506.64,6866.83 -348.3,7.54 c -429.11,9.29 -784.5,-331.04 -793.79,-760.16 v 0 c -3.97,-183.58 -103.45,-351.8 -262.41,-443.74 L 1403.95,5266.68 C 836.383,4938.43 651.789,4206.4 995.836,3648.27 h 0.004 c 321.61,-521.73 992.7,-704.69 1534.6,-418.38 l 204.4,107.99 1564.33,2992.2 -792.53,536.75" /><path
         id="path78"
         style="fill:#191615;fill-opacity:1;fill-rule:nonzero;stroke:none"
         d="m 2240.05,4648.83 c 0,0 -1412.398,-140.75 -1145.57,-1137.49 -8.61,10.41 583.93,-818.53 1640.36,-173.46 l -494.79,1310.95" /><path
         id="path80"
         style="fill:#2f2b2a;fill-opacity:1;fill-rule:nonzero;stroke:none"
         d="m 1240.75,1633.28 -105.13,286.82 1831.9,900.58 -653.57,1452.78 987.06,-334.2 264.21,-939.76 v 0 c 48.06,-301.38 -95.4,-601.3 -360.65,-752.24 C 2736,1980.62 1961.79,1617.67 1240.75,1633.28" /><path
         id="path82"
         style="fill:#413b3b;fill-opacity:1;fill-rule:nonzero;stroke:none"
         d="m 3428.68,5148.89 -7.47,-345.12 1325.51,-945.29 c 107.79,-78.48 178.24,-178.2 224.2,-272.2 56.61,-115.8 85.03,-243.35 85.25,-372.24 l 3.58,-2040.74 -370.97,8.03 -257.07,2127.26 -1803.25,695.56 -0.02,0.03 c -232.28,85.84 -395.57,312.77 -388.61,634.6 l 614.01,217.59 574.84,292.52" /><path
         id="path84"
         style="fill:#8f8c8b;fill-opacity:1;fill-rule:nonzero;stroke:none"
         d="m 3471.31,5234.57 c 0,0 -191,-982.03 -1231.26,-585.74 v 0 c 784.88,170.01 820.27,662.17 956.3,1171.81 l 23.34,87.43 251.62,-673.5" /><path
         id="path86"
         style="fill:#ffffff;fill-opacity:1;fill-rule:nonzero;stroke:none"
         d="m 3677.44,6863.13 6.15,284.41 225.48,-278.03 248.86,230.66 -6.43,-296.78 275.31,-5.96 -481,-788.76 -521.09,859.93 252.72,-5.47" /><path
         id="path88"
         style="fill:#f7debb;fill-opacity:1;fill-rule:nonzero;stroke:none"
         d="m 3683.59,7147.54 -97.47,404.55 c -64.16,266.27 29.08,560.91 396.51,550.95 13.38,-0.37 26.16,1.44 38.3,1.18 v 0 c 174.79,-3.78 313.42,-148.54 309.63,-323.33 l -1.69,-78.39 c -0.78,-35.96 11.9,-70.92 35.56,-98.01 l 61.45,-70.36 c 6.79,-7.78 1.98,-19.98 -8.3,-21 -6.77,-0.67 -14.3,-1.45 -21.73,-2.22 -24.04,-2.49 -42.48,-22.48 -43,-46.65 l -3.32,-153.65 c -0.99,-45.95 -39.06,-82.4 -85.01,-81.41 l -74.08,1.6 c -71.57,1.56 -130.84,-55.2 -132.39,-126.77 l -2.15,-99.29 -146.83,-135.23 -225.48,278.03" /><path
         id="path90"
         style="fill:#2f2b2a;fill-opacity:1;fill-rule:nonzero;stroke:none"
         d="m 3921.44,6869.25 156.23,59.51 c 36.88,14.04 76.25,-13.73 75.4,-53.18 v 0 c -0.79,-36.45 -35.84,-62.29 -70.89,-52.28 l -160.74,45.95" /><path
         id="path92"
         style="fill:#2f2b2a;fill-opacity:1;fill-rule:nonzero;stroke:none"
         d="m 3909.07,6869.51 -153.51,66.21 c -36.24,15.64 -76.78,-10.4 -77.63,-49.86 v 0 c -0.79,-36.45 33.11,-63.78 68.56,-55.29 l 162.58,38.94" /><path
         id="path94"
         style="fill:#ffffff;fill-opacity:1;fill-rule:nonzero;stroke:none"
         d="m 5071.8,5982.84 196.4,-333.38 -165.86,-85.66 -190.6,332.3 160.06,86.74" /><path
         id="path96"
         style="fill:#2f2b2a;fill-opacity:1;fill-rule:nonzero;stroke:none"
         d="m 3424.72,6868.6 -20.59,-951.58 -568.48,839 z" /><path
         id="path98"
         style="fill:#ffffff;fill-opacity:1;fill-rule:nonzero;stroke:none"
         d="m 3786.72,1200.37 c -0.22,-10.05 -4.42,-204.3 -4.42,-204.3 0,0 210.48,-28.007 210.99,-4.558 0.5,23.438 4.42,204.288 4.42,204.288 l -210.99,4.57" /><path
         id="path100"
         style="fill:#2f2b2a;fill-opacity:1;fill-rule:nonzero;stroke:none"
         d="m 4048.72,920.93 -55.01,89.81 -210.9,8.78 c -0.45,-20.598 -61.12,-433.11 -100.22,-609.649 -4.92,-22.242 18.88,-39.699 38.62,-28.359 75.29,43.23 208.63,147.558 254.41,412.687 3.27,-3.41 48.54,-19.187 48.54,-19.187 l 24.56,145.918" /><path
         id="path102"
         style="fill:none;stroke:#1a1716;stroke-width:14.63189983;stroke-linecap:round;stroke-linejoin:miter;stroke-miterlimit:10;stroke-dasharray:none;stroke-opacity:1"
         d="m 3856.36,1012.08 c 0,0 -2.79,-185.08 -57.53,-374.881" /><path
         id="path104"
         style="fill:none;stroke:#1a1716;stroke-width:14.63189983;stroke-linecap:butt;stroke-linejoin:miter;stroke-miterlimit:10;stroke-dasharray:none;stroke-opacity:1"
         d="m 3700.84,500.332 c 0,0 47.29,0.59 71.68,43.629 -0.15,-6.699 -10.2,-65.742 44.22,-85.879" /><path
         id="path106"
         style="fill:none;stroke:#1a1716;stroke-width:14.63189983;stroke-linecap:round;stroke-linejoin:miter;stroke-miterlimit:10;stroke-dasharray:none;stroke-opacity:1"
         d="m 3806.17,840.66 81.2,-1.758" /><path
         id="path108"
         style="fill:none;stroke:#1a1716;stroke-width:14.63189983;stroke-linecap:round;stroke-linejoin:miter;stroke-miterlimit:10;stroke-dasharray:none;stroke-opacity:1"
         d="m 3792.31,800.262 81.2,-1.762" /><path
         id="path110"
         style="fill:none;stroke:#1a1716;stroke-width:14.63189983;stroke-linecap:round;stroke-linejoin:miter;stroke-miterlimit:10;stroke-dasharray:none;stroke-opacity:1"
         d="m 3781.36,759.801 81.2,-1.762" /><path
         id="path112"
         style="fill:none;stroke:#1a1716;stroke-width:14.63189983;stroke-linecap:round;stroke-linejoin:miter;stroke-miterlimit:10;stroke-dasharray:none;stroke-opacity:1"
         d="m 3869.86,1003.45 94.23,9.65 c 15.79,1.61 29.43,-10.97 29.08,-26.83 v 0 c -0.4,-18.68 -19.53,-31.04 -36.71,-23.739 l -87.19,37.028 c -1.94,0.831 -1.5,3.681 0.59,3.891 z" /><path
         id="path114"
         style="fill:none;stroke:#1a1716;stroke-width:14.63189983;stroke-linecap:round;stroke-linejoin:miter;stroke-miterlimit:10;stroke-dasharray:none;stroke-opacity:1"
         d="m 3858.64,1000.68 -90.39,-28.309 c -15.15,-4.75 -31.03,4.848 -33.87,20.469 v 0 c -3.34,18.37 12.93,34.31 31.23,30.59 l 92.83,-18.82 c 2.06,-0.42 2.21,-3.31 0.2,-3.93 z" /><path
         id="path116"
         style="fill:#5c5455;fill-opacity:1;fill-rule:nonzero;stroke:none"
         d="m 3975.73,799.609 18.09,216.531 55.02,-89.8 -24.56,-145.918 -48.55,19.187" /><path
         id="path118"
         style="fill:#b81d23;fill-opacity:1;fill-rule:nonzero;stroke:none"
         d="m 4978.09,1174.59 c -0.22,-10.05 -4.42,-204.301 -4.42,-204.301 0,0 -211.49,-18.879 -210.98,4.57 0.5,23.442 4.41,204.291 4.41,204.291 l 210.99,-4.56" /><path
         id="path120"
         style="fill:#2f2b2a;fill-opacity:1;fill-rule:nonzero;stroke:none"
         d="m 4704.25,906.75 58.85,87.34 211.08,-0.348 c -0.45,-20.613 42.31,-435.351 73.74,-613.422 3.97,-22.422 -20.57,-38.847 -39.8,-26.66 -73.35,46.449 -202.05,156.442 -236.32,423.32 -3.42,-3.281 -49.33,-17.082 -49.33,-17.082 l -18.22,146.852" /><path
         id="path122"
         style="fill:none;stroke:#1a1716;stroke-width:14.63189983;stroke-linecap:round;stroke-linejoin:miter;stroke-miterlimit:10;stroke-dasharray:none;stroke-opacity:1"
         d="m 4900.37,989.48 c 0,0 -5.21,-185.019 41.25,-377.011" /><path
         id="path124"
         style="fill:none;stroke:#1a1716;stroke-width:14.63189983;stroke-linecap:butt;stroke-linejoin:miter;stroke-miterlimit:10;stroke-dasharray:none;stroke-opacity:1"
         d="m 5033.6,471.48 c 0,0 -47.21,2.649 -69.71,46.692 -0.15,-6.699 7.34,-66.121 -47.9,-83.883" /><path
         id="path126"
         style="fill:none;stroke:#1a1716;stroke-width:14.63189983;stroke-linecap:round;stroke-linejoin:miter;stroke-miterlimit:10;stroke-dasharray:none;stroke-opacity:1"
         d="m 4943.11,816.051 -81.21,1.758" /><path
         id="path128"
         style="fill:none;stroke:#1a1716;stroke-width:14.63189983;stroke-linecap:round;stroke-linejoin:miter;stroke-miterlimit:10;stroke-dasharray:none;stroke-opacity:1"
         d="M 4955.21,775.09 4874,776.852" /><path
         id="path130"
         style="fill:none;stroke:#1a1716;stroke-width:14.63189983;stroke-linecap:round;stroke-linejoin:miter;stroke-miterlimit:10;stroke-dasharray:none;stroke-opacity:1"
         d="m 4964.4,734.191 -81.22,1.758" /><path
         id="path132"
         style="fill:none;stroke:#1a1716;stroke-width:14.63189983;stroke-linecap:round;stroke-linejoin:miter;stroke-miterlimit:10;stroke-dasharray:none;stroke-opacity:1"
         d="m 4886.4,976.039 -93.73,13.711 c -15.71,2.309 -29.88,-9.68 -30.22,-25.551 v 0 c -0.4,-18.668 18.18,-31.84 35.66,-25.297 l 88.71,33.219 c 1.96,0.75 1.66,3.621 -0.42,3.918 z" /><path
         id="path134"
         style="fill:none;stroke:#1a1716;stroke-width:14.63189983;stroke-linecap:round;stroke-linejoin:miter;stroke-miterlimit:10;stroke-dasharray:none;stroke-opacity:1"
         d="m 4897.48,972.789 89.08,-32.199 c 14.93,-5.399 31.21,3.512 34.73,18.992 v 0 c 4.13,18.207 -11.43,34.84 -29.87,31.918 l -93.57,-14.801 c -2.07,-0.328 -2.34,-3.199 -0.37,-3.91 z" /><path
         id="path136"
         style="fill:#5c5455;fill-opacity:1;fill-rule:nonzero;stroke:none"
         d="m 4771.8,776.98 -8.7,217.11 -58.85,-87.34 18.22,-146.852 49.33,17.082" /><path
         id="path138"
         style="fill:#2f2b2a;fill-opacity:1;fill-rule:nonzero;stroke:none"
         d="m 3214.24,4994.66 c -0.49,-22.67 17.49,-41.45 40.16,-41.94 22.67,-0.49 41.44,17.5 41.93,40.16 0.49,22.67 -17.49,41.45 -40.16,41.93 -22.66,0.5 -41.44,-17.48 -41.93,-40.15" /><path
         id="path140"
         style="fill:#2f2b2a;fill-opacity:1;fill-rule:nonzero;stroke:none"
         d="m 3099.78,4838.73 c -0.49,-22.67 17.49,-41.45 40.15,-41.94 22.67,-0.49 41.45,17.49 41.94,40.16 0.49,22.67 -17.49,41.44 -40.16,41.94 -22.67,0.49 -41.44,-17.49 -41.93,-40.16" /><path
         id="path142"
         style="fill:none;stroke:#2f2b2a;stroke-width:14.63189983;stroke-linecap:butt;stroke-linejoin:miter;stroke-miterlimit:10;stroke-dasharray:none;stroke-opacity:1"
         d="M 4757.18,3150 4867.34,1253.48" /><path
         id="path144"
         style="fill:none;stroke:#2f2b2a;stroke-width:18.03730011;stroke-linecap:butt;stroke-linejoin:miter;stroke-miterlimit:10;stroke-dasharray:none;stroke-opacity:1"
         d="m 2759.8,4513.39 c 0,0 40.5,-250.46 -254.23,-244.08" /><path
         id="path146"
         style="fill:#8f8c8b;fill-opacity:1;fill-rule:nonzero;stroke:none"
         d="m 4426.81,6797.43 -492.32,-700.7 -495.05,772.83 -246.11,-614.52 c 0,0 394.7,-880.72 400.65,-899.41 5.96,-18.69 801.25,-17.34 801.25,-17.34 l 31.58,1459.14" /><path
         id="path148"
         style="fill:none;stroke:#413b3b;stroke-width:14.63189983;stroke-linecap:butt;stroke-linejoin:miter;stroke-miterlimit:10;stroke-dasharray:none;stroke-opacity:1"
         d="m 3662.1,5544.18 764.71,1253.25" /><path
         id="path150"
         style="fill:#191615;fill-opacity:1;fill-rule:nonzero;stroke:none"
         d="m 3424.72,6868.6 -16.22,-749.38 c 0,0 -190.15,-934.75 -633.93,-1232.39 4.94,7.97 159.2,1958.68 159.2,1958.68 0,0 158.48,58.57 490.95,23.09" /><path
         id="path152"
         style="fill:#413b3b;fill-opacity:1;fill-rule:nonzero;stroke:none"
         d="M 4911.9,5903.36 5102.34,5563.8 3831.69,5029.5 c -155.13,-65.24 -334.51,-3.6 -416.78,143.21 l -957.17,1282.87 c 0,0 152.46,369.86 562.91,409.65 -1.21,-0.2 720.72,-1384.6 720.72,-1384.6 l 1170.53,422.73" /><path
         id="path154"
         style="fill:#b81d23;fill-opacity:1;fill-rule:nonzero;stroke:none"
         d="m 4330.56,7780.89 -131.39,2.84 c -108.96,2.36 -199.2,-84.05 -201.56,-193.01 l -1.88,-87.21 c -0.71,-32.93 -27.99,-59.05 -60.92,-58.34 v 0 c -32.93,0.71 -59.04,27.99 -58.33,60.92 l 1.5,69.55 c 0.76,35.09 -27.07,64.15 -62.16,64.91 v 0 c -35.09,0.76 -64.15,-27.07 -64.91,-62.16 l -4.42,-204.28 c -1.18,-54.35 -37.14,-101.8 -89.15,-117.62 v 0 l -114.72,441.84 c -60.98,234.88 119.42,462.97 362.04,457.72 l 68.04,-1.47 c 202.02,-4.37 362.24,-171.68 357.86,-373.69 v 0" /><path
         id="path156"
         style="fill:none;stroke:#191615;stroke-width:8.77917004;stroke-linecap:butt;stroke-linejoin:miter;stroke-miterlimit:10;stroke-dasharray:none;stroke-opacity:1"
         d="m 2890.64,3903.02 281.44,-856.53" /><path
         id="path158"
         style="fill:none;stroke:#191615;stroke-width:8.77917004;stroke-linecap:butt;stroke-linejoin:miter;stroke-miterlimit:10;stroke-dasharray:none;stroke-opacity:1"
         d="M 1182.19,1793.04 3027.3,2534.7" /><path
         id="path160"
         style="fill:#686262;fill-opacity:1;fill-rule:nonzero;stroke:none"
         d="M 5503.87,4762.63 4138.71,3875.57 c -111.1,-73.75 -185.79,-170.32 -235.77,-262.24 -61.57,-113.25 -95.48,-239.45 -101.28,-368.21 l -91.86,-2038.67 370.97,-8.03 348.85,2114.14 1831.66,616.9 0.02,0.03 c 235.78,75.71 -757.43,833.14 -757.43,833.14" /><path
         id="path162"
         style="fill:none;stroke:#2f2b2a;stroke-width:14.63189983;stroke-linecap:butt;stroke-linejoin:miter;stroke-miterlimit:10;stroke-dasharray:none;stroke-opacity:1"
         d="M 4097.6,3168.2 3905.49,1278.23" /><path
         id="path164"
         style="fill:#413b3b;fill-opacity:1;fill-rule:nonzero;stroke:none"
         d="m 3425.92,4807.6 1325.51,-945.28 c 107.79,-78.5 178.24,-178.21 224.2,-272.21 56.61,-115.8 85.03,-243.35 85.26,-372.24 l 3.56,-2040.74 -370.96,8.03 -257.06,2127.26 -1803.26,695.55 -0.02,0.03 c -232.29,85.85 792.77,799.6 792.77,799.6" /><path
         id="path166"
         style="fill:#ffffff;fill-opacity:1;fill-rule:nonzero;stroke:none"
         d="m 3791.43,1204.19 c -0.21,-10.04 -4.42,-204.28 -4.42,-204.28 0,0 210.48,-28.019 210.99,-4.57 0.51,23.44 4.42,204.28 4.42,204.28 l -210.99,4.57" /><path
         id="path168"
         style="fill:#2f2b2a;fill-opacity:1;fill-rule:nonzero;stroke:none"
         d="m 4053.43,924.77 -55.02,89.8 -210.89,8.78 c -0.45,-20.6 -61.11,-433.108 -100.22,-609.651 -4.92,-22.226 18.87,-39.699 38.62,-28.359 75.29,43.242 208.63,147.558 254.41,412.691 3.27,-3.422 48.54,-19.191 48.54,-19.191 l 24.56,145.93" /><path
         id="path170"
         style="fill:none;stroke:#1a1716;stroke-width:14.63189983;stroke-linecap:round;stroke-linejoin:miter;stroke-miterlimit:10;stroke-dasharray:none;stroke-opacity:1"
         d="m 3861.07,1015.9 c 0,0 -2.79,-185.06 -57.52,-374.869" /><path
         id="path172"
         style="fill:none;stroke:#1a1716;stroke-width:14.63189983;stroke-linecap:butt;stroke-linejoin:miter;stroke-miterlimit:10;stroke-dasharray:none;stroke-opacity:1"
         d="m 3705.55,504.16 c 0,0 47.29,0.59 71.68,43.629 -0.15,-6.699 -10.2,-65.738 44.22,-85.879" /><path
         id="path174"
         style="fill:none;stroke:#1a1716;stroke-width:14.63189983;stroke-linecap:round;stroke-linejoin:miter;stroke-miterlimit:10;stroke-dasharray:none;stroke-opacity:1"
         d="m 3810.87,844.492 81.21,-1.762" /><path
         id="path176"
         style="fill:none;stroke:#1a1716;stroke-width:14.63189983;stroke-linecap:round;stroke-linejoin:miter;stroke-miterlimit:10;stroke-dasharray:none;stroke-opacity:1"
         d="m 3797.01,804.09 81.21,-1.75" /><path
         id="path178"
         style="fill:none;stroke:#1a1716;stroke-width:14.63189983;stroke-linecap:round;stroke-linejoin:miter;stroke-miterlimit:10;stroke-dasharray:none;stroke-opacity:1"
         d="m 3786.07,763.629 81.2,-1.758" /><path
         id="path180"
         style="fill:none;stroke:#1a1716;stroke-width:14.63189983;stroke-linecap:round;stroke-linejoin:miter;stroke-miterlimit:10;stroke-dasharray:none;stroke-opacity:1"
         d="m 3874.57,1007.28 94.23,9.65 c 15.79,1.61 29.43,-10.97 29.09,-26.84 v 0 c -0.41,-18.668 -19.53,-31.031 -36.72,-23.731 l -87.19,37.031 c -1.93,0.82 -1.5,3.68 0.59,3.89 z" /><path
         id="path182"
         style="fill:none;stroke:#1a1716;stroke-width:14.63189983;stroke-linecap:round;stroke-linejoin:miter;stroke-miterlimit:10;stroke-dasharray:none;stroke-opacity:1"
         d="m 3863.36,1004.51 -90.4,-28.311 c -15.15,-4.75 -31.03,4.852 -33.87,20.473 v 0 c -3.34,18.358 12.92,34.308 31.22,30.598 l 92.84,-18.84 c 2.06,-0.41 2.21,-3.3 0.21,-3.92 z" /><path
         id="path184"
         style="fill:#5c5455;fill-opacity:1;fill-rule:nonzero;stroke:none"
         d="m 3980.44,803.441 18.09,216.539 55.02,-89.808 -24.56,-145.93 -48.55,19.199" /><path
         id="path186"
         style="fill:#b81d23;fill-opacity:1;fill-rule:nonzero;stroke:none"
         d="m 4982.8,1178.41 c -0.21,-10.05 -4.42,-204.289 -4.42,-204.289 0,0 -211.49,-18.879 -210.99,4.57 0.51,23.439 4.43,204.279 4.43,204.279 l 210.98,-4.56" /><path
         id="path188"
         style="fill:#2f2b2a;fill-opacity:1;fill-rule:nonzero;stroke:none"
         d="m 4708.96,910.582 58.84,87.34 211.09,-0.363 c -0.45,-20.59 42.31,-435.34 73.75,-613.411 3.95,-22.429 -20.58,-38.847 -39.82,-26.656 -73.35,46.449 -202.05,156.449 -236.31,423.317 -3.42,-3.289 -49.33,-17.079 -49.33,-17.079 l -18.22,146.852" /><path
         id="path190"
         style="fill:none;stroke:#1a1716;stroke-width:14.63189983;stroke-linecap:round;stroke-linejoin:miter;stroke-miterlimit:10;stroke-dasharray:none;stroke-opacity:1"
         d="m 4905.08,993.309 c 0,0 -5.22,-185.02 41.26,-377.008" /><path
         id="path192"
         style="fill:none;stroke:#1a1716;stroke-width:14.63189983;stroke-linecap:butt;stroke-linejoin:miter;stroke-miterlimit:10;stroke-dasharray:none;stroke-opacity:1"
         d="m 5038.32,475.309 c 0,0 -47.23,2.64 -69.73,46.691 -0.14,-6.691 7.35,-66.121 -47.9,-83.879" /><path
         id="path194"
         style="fill:none;stroke:#1a1716;stroke-width:14.63189983;stroke-linecap:round;stroke-linejoin:miter;stroke-miterlimit:10;stroke-dasharray:none;stroke-opacity:1"
         d="m 4947.81,819.879 -81.2,1.762" /><path
         id="path196"
         style="fill:none;stroke:#1a1716;stroke-width:14.63189983;stroke-linecap:round;stroke-linejoin:miter;stroke-miterlimit:10;stroke-dasharray:none;stroke-opacity:1"
         d="m 4959.91,778.922 -81.2,1.758" /><path
         id="path198"
         style="fill:none;stroke:#1a1716;stroke-width:14.63189983;stroke-linecap:round;stroke-linejoin:miter;stroke-miterlimit:10;stroke-dasharray:none;stroke-opacity:1"
         d="m 4969.1,738.031 -81.2,1.758" /><path
         id="path200"
         style="fill:none;stroke:#1a1716;stroke-width:14.63189983;stroke-linecap:round;stroke-linejoin:miter;stroke-miterlimit:10;stroke-dasharray:none;stroke-opacity:1"
         d="m 4891.1,979.871 -93.72,13.719 c -15.71,2.289 -29.88,-9.688 -30.22,-25.559 v 0 c -0.4,-18.672 18.17,-31.84 35.66,-25.301 l 88.7,33.231 c 1.98,0.73 1.66,3.609 -0.42,3.91 z" /><path
         id="path202"
         style="fill:none;stroke:#1a1716;stroke-width:14.63189983;stroke-linecap:round;stroke-linejoin:miter;stroke-miterlimit:10;stroke-dasharray:none;stroke-opacity:1"
         d="m 4902.19,976.621 89.09,-32.199 c 14.92,-5.402 31.21,3.508 34.72,18.98 v 0 c 4.13,18.219 -11.43,34.848 -29.88,31.93 l -93.56,-14.801 c -2.07,-0.332 -2.34,-3.199 -0.37,-3.91 z" /><path
         id="path204"
         style="fill:#5c5455;fill-opacity:1;fill-rule:nonzero;stroke:none"
         d="m 4776.51,780.809 -8.71,217.113 -58.84,-87.34 18.22,-146.852 49.33,17.079" /><path
         id="path206"
         style="fill:none;stroke:#2f2b2a;stroke-width:14.63189983;stroke-linecap:butt;stroke-linejoin:miter;stroke-miterlimit:10;stroke-dasharray:none;stroke-opacity:1"
         d="M 4761.9,3153.82 4872.05,1257.31" /><path
         id="path208"
         style="fill:none;stroke:#100f0d;stroke-width:13.78419971;stroke-linecap:round;stroke-linejoin:miter;stroke-miterlimit:10;stroke-dasharray:none;stroke-opacity:1"
         d="m 7781.47,1378.61 39.78,43.53 c 9.39,10.28 25.78,9.55 34.22,-1.53 v 0 c 10.53,-13.82 1.91,-33.84 -15.36,-35.69 z" /><path
         id="path210"
         style="fill:none;stroke:#100f0d;stroke-width:13.78419971;stroke-linecap:round;stroke-linejoin:miter;stroke-miterlimit:10;stroke-dasharray:none;stroke-opacity:1"
         d="m 7804.21,1321.63 47.54,15.09" /><path
         id="path212"
         style="fill:none;stroke:#100f0d;stroke-width:13.78419971;stroke-linecap:round;stroke-linejoin:miter;stroke-miterlimit:10;stroke-dasharray:none;stroke-opacity:1"
         d="m 7814.33,1294.5 47.54,15.09" /><path
         id="path214"
         style="fill:none;stroke:#100f0d;stroke-width:13.78419971;stroke-linecap:round;stroke-linejoin:miter;stroke-miterlimit:10;stroke-dasharray:none;stroke-opacity:1"
         d="m 7817.95,1265.63 47.54,15.09" /><path
         id="path216"
         style="fill:none;stroke:#100f0d;stroke-width:13.78419971;stroke-linecap:round;stroke-linejoin:miter;stroke-miterlimit:10;stroke-dasharray:none;stroke-opacity:1"
         d="m 7787.89,1382.22 -32.57,-49.17 c -7.68,-11.6 -24,-13.42 -34.04,-3.78 v 0 c -12.54,12.02 -7.13,33.14 9.65,37.65 z" /><path
         id="path218"
         style="fill:none;stroke:#100f0d;stroke-width:13.78419971;stroke-linecap:round;stroke-linejoin:miter;stroke-miterlimit:10;stroke-dasharray:none;stroke-opacity:1"
         d="m 7834.48,1138.22 c 0,0 21.39,-48.91 86.37,-40.29" /><path
         id="path220"
         style="fill:none;stroke:#100f0d;stroke-width:15.88169956;stroke-linecap:round;stroke-linejoin:miter;stroke-miterlimit:10;stroke-dasharray:none;stroke-opacity:1"
         d="m 1002.25,1528.05 -40.449,54.61 c -9.539,12.89 -28.422,13.99 -39.395,2.3 v 0 c -13.695,-14.6 -6.191,-38.56 13.387,-42.74 z" /><path
         id="path222"
         style="fill:none;stroke:#100f0d;stroke-width:15.88169956;stroke-linecap:round;stroke-linejoin:miter;stroke-miterlimit:10;stroke-dasharray:none;stroke-opacity:1"
         d="m 969.445,1465.44 -52.703,22.92" /><path
         id="path224"
         style="fill:none;stroke:#100f0d;stroke-width:15.88169956;stroke-linecap:round;stroke-linejoin:miter;stroke-miterlimit:10;stroke-dasharray:none;stroke-opacity:1"
         d="m 958.566,1432.63 -52.703,22.91" /><path
         id="path226"
         style="fill:none;stroke:#100f0d;stroke-width:15.88169956;stroke-linecap:round;stroke-linejoin:miter;stroke-miterlimit:10;stroke-dasharray:none;stroke-opacity:1"
         d="m 955.063,1399.76 -52.7,22.92" /><path
         id="path228"
         style="fill:none;stroke:#100f0d;stroke-width:15.88169956;stroke-linecap:round;stroke-linejoin:miter;stroke-miterlimit:10;stroke-dasharray:none;stroke-opacity:1"
         d="m 995.316,1532.96 31.514,-60.2 c 7.44,-14.21 25.92,-18.21 38.57,-8.36 v 0 c 15.79,12.3 12.08,37.13 -6.61,44.29 z" /><path
         id="path230"
         style="fill:none;stroke:#100f0d;stroke-width:15.33950043;stroke-linecap:round;stroke-linejoin:miter;stroke-miterlimit:10;stroke-dasharray:none;stroke-opacity:1"
         d="m 932.98,1293.51 c 0,0 -28.449,-53.62 -96.929,-36.33" /><path
         id="path232"
         style="fill:#413b3b;fill-opacity:1;fill-rule:nonzero;stroke:none"
         d="m 4049.4,5928.97 -204.97,-331 1246.35,-588.78 c 152.16,-71.89 334.04,-18.06 422.59,125.05 l 992.13,1288.83 c 0,0 -125.31,327.73 -525.01,385.05 C 5981.69,6807.87 5200.54,5456 5200.54,5456 L 4049.4,5928.97" /><path
         id="path234"
         style="fill:#ffffff;fill-opacity:1;fill-rule:nonzero;stroke:none"
         d="m 3722.52,5664.85 165.91,347.18 163.45,-85.49 -169.03,-347.91 -160.33,86.22" /><path
         id="path236"
         style="fill:#a35e35;fill-opacity:1;fill-rule:nonzero;stroke:none"
         d="m 3860.63,5958.29 -230,103.34 -246.67,-136.67 -13.33,-186.67 233.33,10 118.56,-83.44 138.11,293.44" /><path
         id="path238"
         style="fill:#f7debb;fill-opacity:1;fill-rule:nonzero;stroke:none"
         d="m 5084.58,5960.4 219.2,121.99 259.34,-110.77 32.32,-184.33 -233.14,-13.87 -109.42,-95.11 -168.3,282.09" /></g></g></svg>