<?xml version="1.0" encoding="UTF-8" standalone="no"?>
<svg
   xmlns:dc="http://purl.org/dc/elements/1.1/"
   xmlns:cc="http://creativecommons.org/ns#"
   xmlns:rdf="http://www.w3.org/1999/02/22-rdf-syntax-ns#"
   xmlns:svg="http://www.w3.org/2000/svg"
   xmlns="http://www.w3.org/2000/svg"
   version="1.1"
   id="svg2"
   xml:space="preserve"
   width="850.40594"
   height="1042.7755"
   viewBox="0 0 850.40595 1042.7755"><metadata
     id="metadata8"><rdf:RDF><cc:Work
         rdf:about=""><dc:format>image/svg+xml</dc:format><dc:type
           rdf:resource="http://purl.org/dc/dcmitype/StillImage" /></cc:Work></rdf:RDF></metadata><defs
     id="defs6" /><g
     id="g10"
     transform="matrix(1.3333333,0,0,-1.3333333,-239.65405,1159.5876)"><g
       id="g12"
       transform="scale(0.1)"><path
         d="m 4136.08,8033.39 c 61.27,-252.21 -232.44,-540.08 -484.64,-601.34 -89.8,-21.82 -367.4,127.26 -428.66,379.47 -61.27,252.2 93.51,506.31 345.72,567.58 252.2,61.27 506.32,-93.51 567.58,-345.71"
         style="fill:#ffffff;fill-opacity:1;fill-rule:nonzero;stroke:none"
         id="path14" /><path
         d="m 2681.98,1888.61 -226.15,-153.48 81.72,-253.64 64.71,84.16 193.88,159.67 -114.16,163.29"
         style="fill:#ffffff;fill-opacity:1;fill-rule:nonzero;stroke:none"
         id="path16" /><path
         d="m 2333.05,1661.06 65.58,-187.18 57.08,29.96 112.09,-461.43 c 0,0 70.6,93.87 39.64,233.72 -9.79,44.21 -13.34,89.65 -7.94,134.6 5.18,43.04 16.19,89.88 39.29,113.46 16.23,11.92 -19.62,75.8 -100,34.16 5.75,9.43 -82.96,176.78 -82.96,176.78 l -122.78,-74.07"
         style="fill:#2f2b2a;fill-opacity:1;fill-rule:nonzero;stroke:none"
         id="path18" /><path
         d="m 2333.05,1661.06 65.58,-187.18 57.08,29.96 -48.99,201.66 -73.67,-44.44"
         style="fill:#5c5455;fill-opacity:1;fill-rule:nonzero;stroke:none"
         id="path20" /><path
         d="m 3615.22,7023.03 -313.57,-76.18 c -386.3,-93.85 -623.4,-483.09 -529.55,-869.4 v -0.01 c 40.15,-165.28 -8.84,-339.53 -129.24,-459.67 l -528.84,-527.66 c -429.89,-428.95 -420.84,-1128.15 20,-1545.83 v -0.01 c 412.09,-390.44 1056.35,-394.43 1473.25,-9.15 l 157.26,145.33 687.88,3050.8 -837.19,291.78"
         style="fill:#2f2b2a;fill-opacity:1;fill-rule:nonzero;stroke:none"
         id="path22" /><path
         d="m 3009.53,4736.11 c 0,0 -1230.76,-462.24 -754.62,-1290.92 -10.18,7.28 717.56,-593.66 1509.62,235.26 l -755,1055.66"
         style="fill:#191615;fill-opacity:1;fill-rule:nonzero;stroke:none"
         id="path24" /><path
         d="m 2819.07,1645.73 -171.98,245.38 1509.51,1315.59 -985.84,1212.39 1019.95,-67.94 487.39,-824.24 -372.4,-908.25 c 0,0 -517.78,-643.93 -1486.63,-972.93"
         style="fill:#2f2b2a;fill-opacity:1;fill-rule:nonzero;stroke:none"
         id="path26" /><path
         d="m 3766.03,4221.19 455.84,-699.69 6.81,4.44 -455.84,699.69"
         style="fill:#191615;fill-opacity:1;fill-rule:nonzero;stroke:none"
         id="path28" /><path
         d="m 2725.86,1778.96 1562.09,1168.27 -5.16,6.9 L 2720.7,1785.86"
         style="fill:#191615;fill-opacity:1;fill-rule:nonzero;stroke:none"
         id="path30" /><path
         d="m 4240.66,3892.44 c 0,0 -95.79,-406.43 -40.29,-1459.89 0,0 7.86,-905.86 -84.6,-1228.96 -5.73,-24.97 219.79,41.6 208.47,427.91 -1.32,5.39 413.25,718.49 232.54,1342.31 -16.54,57.08 -23.31,116.64 -19.28,175.92 4.27,62.78 21.62,143.84 76.22,226.18 9.78,8.28 118.31,240.95 118.31,240.95 l -491.37,275.58"
         style="fill:#f0d1a3;fill-opacity:1;fill-rule:nonzero;stroke:none"
         id="path32" /><path
         d="m 4324.24,1631.5 c 0,0 6.83,-221.66 -208.47,-427.91 l -20,-326.469 312.48,476.109 121.24,-32.16 0.52,234.95 -205.77,75.48"
         style="fill:#cc4669;fill-opacity:1;fill-rule:nonzero;stroke:none"
         id="path34" /><path
         d="m 7660.38,3872.07 c 264.5,-1088.79 -403.72,-2185.85 -1492.51,-2450.36 -1088.8,-264.5 -2185.86,403.73 -2450.36,1492.51 -264.5,1088.8 403.72,2185.86 1492.52,2450.37 1088.79,264.5 2185.85,-403.72 2450.35,-1492.52"
         style="fill:#cc4669;fill-opacity:1;fill-rule:nonzero;stroke:none"
         id="path36" /><path
         d="m 5489.33,8267.63 c 73.25,-301.5 -111.78,-605.28 -413.28,-678.52 -301.48,-73.24 -605.26,111.79 -678.5,413.28 -73.24,301.49 111.79,605.27 413.28,678.51 301.48,73.24 605.26,-111.79 678.5,-413.27"
         style="fill:#ffffff;fill-opacity:1;fill-rule:nonzero;stroke:none"
         id="path38" /><path
         d="m 5165.39,6729.41 -259.32,447.8 -450.67,2.77 142.92,-588.33 567.07,137.76"
         style="fill:#191615;fill-opacity:1;fill-rule:nonzero;stroke:none"
         id="path40" /><path
         d="m 4496.64,7010.21 235.82,132.78 c 69.48,39.13 104.48,119.69 85.65,197.18 -19.57,80.56 -92.16,136.96 -175.06,136 l -21.34,-0.24 c -31.61,-0.36 -59.29,21.14 -66.75,51.85 l -30.19,124.3 c -6.29,25.91 -25.88,46.53 -51.43,54.15 l -7.26,2.16 c -12.36,3.69 -18.45,17.61 -12.75,29.19 l 18.46,37.48 c 13.13,26.65 19.2,56.44 16.13,85.99 -14.96,144.06 78.48,280.6 223.13,315.74 l 93.87,22.8 c 231.12,56.14 463.99,-85.7 520.15,-316.82 l 26.16,-107.71 -213.97,-382.28 24.88,-102.36 c 12.01,-49.46 91.65,-85.87 176.28,-73.84 52.95,7.54 107.3,-0.71 154.31,-26.21 28.14,-15.26 340.75,-350.94 340.75,-350.94 l -1250.81,-183.35 -86.03,354.13"
         style="fill:#f0d1a3;fill-opacity:1;fill-rule:nonzero;stroke:none"
         id="path42" /><path
         d="m 5408.12,6360.75 772.9,-558.04 c 103.07,-74.43 245.65,-59.35 330.88,34.99 89.56,99.13 85.06,251.23 -10.21,344.88 l -874.03,859.17 -140.86,-117.87 -78.68,-563.13"
         style="fill:#f0d1a3;fill-opacity:1;fill-rule:nonzero;stroke:none"
         id="path44" /><path
         d="m 5567.85,6617.06 c 0,0 0.08,3.65 -0.12,10.2 -5.88,200.39 -200.03,341.03 -392.83,286.11 l -643.78,-183.4 c 12.18,2.96 215.41,-886.76 215.41,-886.76 l -873.94,-365.53 c 0,0 -81.95,-407.09 -87.57,-414.63 -5.63,-7.54 173.23,-229.17 173.23,-229.17 l 1130.48,-492.66 763.53,-797.76 400.5,-1648.64 377.18,91.63 c 921.23,223.79 -654.86,3415.24 -654.86,3415.24 -271.34,37.02 -484.88,269.4 -522.49,540.65 l -48.49,349.72 163.75,325"
         style="fill:#cc4669;fill-opacity:1;fill-rule:nonzero;stroke:none"
         id="path46" /><path
         d="m 3954.44,5466.71 75.48,-310.7 1411.52,-530.57 c 115.19,-44.59 201.99,-117.08 265.49,-190.28 78.25,-90.17 134.06,-197.59 164.94,-312.91 l 489.05,-1825.85 -333.97,-81.13 -736.55,1842.95 -1779.71,193.29 -0.03,0.03 c -228.36,21.54 -428.55,185.79 -498.93,475.53 l 497.8,340.95 444.91,398.69"
         style="fill:#413b3b;fill-opacity:1;fill-rule:nonzero;stroke:none"
         id="path48" /><path
         d="m 3972.2,5553.55 c 0,0 62.83,-924.5 -962.67,-817.44 662.09,339.04 576.59,788.01 577.02,1276.58 l 0.07,83.82 385.58,-542.96"
         style="fill:#8f8c8b;fill-opacity:1;fill-rule:nonzero;stroke:none"
         id="path50" /><path
         d="m 3768.99,7060.38 -62.2,256.05 268.02,-195.19 167.84,265.7 64.91,-267.17 247.84,60.21 -242.76,-820.55 -671.17,645.68 227.52,55.27"
         style="fill:#ffffff;fill-opacity:1;fill-rule:nonzero;stroke:none"
         id="path52" /><path
         d="m 3706.79,7316.43 -183.57,338.91 c -120.82,223.07 -107.51,509 223.76,587.56 12.06,2.86 23.07,7.52 34,10.17 157.36,38.23 315.91,-58.34 354.14,-215.7 l 17.14,-70.57 c 7.87,-32.37 27.54,-60.65 55.17,-79.26 l 71.75,-48.36 c 7.93,-5.34 6.53,-17.41 -2.42,-20.77 -5.91,-2.21 -12.46,-4.69 -18.93,-7.15 -20.93,-7.96 -32.66,-30.24 -27.38,-51.99 l 33.61,-138.34 c 10.05,-41.37 -15.34,-83.06 -56.72,-93.11 l -66.7,-16.2 c -64.42,-15.65 -103.97,-80.57 -88.31,-145 l 21.71,-89.39 -99.23,-155.99 -268.02,195.19"
         style="fill:#f0d1a3;fill-opacity:1;fill-rule:nonzero;stroke:none"
         id="path54" /><path
         d="m 3985.94,7123.94 125.68,90.46 c 29.67,21.36 71.52,5.87 80.15,-29.65 7.97,-32.81 -17.25,-64.29 -51.01,-63.67 l -154.82,2.86"
         style="fill:#2f2b2a;fill-opacity:1;fill-rule:nonzero;stroke:none"
         id="path56" /><path
         d="m 3974.81,7121.24 -153.17,22.72 c -36.17,5.36 -66.25,-27.6 -57.62,-63.12 7.97,-32.81 44.82,-49.21 74.53,-33.17 l 136.26,73.57"
         style="fill:#2f2b2a;fill-opacity:1;fill-rule:nonzero;stroke:none"
         id="path58" /><path
         d="m 4683.58,7593.94 c -40.61,0 -77.49,27.65 -87.5,68.87 -11.75,48.37 17.94,97.1 66.31,108.85 7.15,1.74 14.3,2.57 21.35,2.57 40.61,0 77.48,-27.65 87.5,-68.87 11.75,-48.37 -17.94,-97.1 -66.3,-108.85 -7.15,-1.74 -14.31,-2.57 -21.36,-2.57"
         style="fill:#f6e6cc;fill-opacity:1;fill-rule:nonzero;stroke:none"
         id="path60" /><path
         d="m 4683.58,7593.94 c -40.61,0 -77.49,27.65 -87.5,68.87 -11.75,48.37 17.94,97.1 66.31,108.85 7.15,1.74 14.3,2.57 21.35,2.57 40.61,0 77.48,-27.65 87.5,-68.87 11.75,-48.37 -17.94,-97.1 -66.3,-108.85 -7.15,-1.74 -14.31,-2.57 -21.36,-2.57"
         style="fill:#e7aab2;fill-opacity:1;fill-rule:nonzero;stroke:none"
         id="path62" /><path
         d="m 6183.95,6164.25 -571.61,354.91"
         style="fill:#73d0d4;fill-opacity:1;fill-rule:nonzero;stroke:none"
         id="path64" /><path
         d="m 6191.87,6177 -571.61,354.9 c -7.04,4.37 -16.29,2.21 -20.66,-4.83 -4.37,-7.04 -2.21,-16.29 4.83,-20.66 l 571.61,-354.9 c 7.04,-4.37 16.29,-2.21 20.66,4.83 4.37,7.04 2.2,16.29 -4.83,20.66"
         style="fill:#d3ac82;fill-opacity:1;fill-rule:nonzero;stroke:none"
         id="path66" /><path
         d="m 5387.8,6737.02 c 4.85,4.51 9.98,8.71 15.35,12.64 l 0.57,0.46 0.03,-0.03 c 22.65,16.39 49.72,27.3 79.5,30.49 91.11,9.73 172.87,-56.24 182.61,-147.36 6.6,-61.81 -21.66,-119.28 -68.96,-152.92 l -0.04,-0.06 c -10.26,-6.74 -128.21,-110.41 -128.21,-110.41 l -212.44,226.41 131.59,140.78"
         style="fill:#f0d1a3;fill-opacity:1;fill-rule:nonzero;stroke:none"
         id="path68" /><path
         d="m 3541.47,7005.11 208.12,-856.68 -708.6,615.66 z"
         style="fill:#2f2b2a;fill-opacity:1;fill-rule:nonzero;stroke:none"
         id="path70" /><path
         d="m 3799.21,5277.6 c 4.95,-20.41 25.52,-32.94 45.93,-27.98 20.41,4.96 32.93,25.53 27.97,45.93 -4.96,20.41 -25.52,32.94 -45.93,27.98 -20.4,-4.96 -32.93,-25.52 -27.97,-45.93"
         style="fill:#2f2b2a;fill-opacity:1;fill-rule:nonzero;stroke:none"
         id="path72" /><path
         d="m 3733.87,5110.77 c 4.96,-20.41 25.52,-32.93 45.93,-27.98 20.41,4.96 32.94,25.53 27.98,45.94 -4.96,20.4 -25.52,32.93 -45.93,27.97 -20.41,-4.96 -32.93,-25.52 -27.98,-45.93"
         style="fill:#2f2b2a;fill-opacity:1;fill-rule:nonzero;stroke:none"
         id="path74" /><path
         d="m 5613.05,3991.63 550.12,-1671.38 12.87,4.24 -550.11,1671.37"
         style="fill:#2f2b2a;fill-opacity:1;fill-rule:nonzero;stroke:none"
         id="path76" /><path
         d="m 3499.38,4735.21 0.14,-0.32 c 1.61,-3.71 16.04,-38.88 16.01,-82.63 -0.03,-32.34 -7.71,-69.07 -33.64,-102.38 -25.96,-33.29 -70.59,-63.73 -146.31,-82.15 l 3.95,-16.24 c 78.29,19 126.83,51.26 155.53,88.13 28.73,36.84 37.2,77.73 37.17,112.64 -0.04,50.52 -17.35,89.14 -17.6,89.76 l -15.25,-6.81"
         style="fill:#2f2b2a;fill-opacity:1;fill-rule:nonzero;stroke:none"
         id="path78" /><path
         d="m 4455.4,7179.98 -253.86,-744.42 -647.11,573.91 -74.01,-608.66 c 0,0 562.99,-694.38 572.77,-709.69 9.78,-15.31 721.33,175.23 721.33,175.23 L 4455.4,7179.98"
         style="fill:#8f8c8b;fill-opacity:1;fill-rule:nonzero;stroke:none"
         id="path80" /><path
         d="m 4028.06,5905.93 433.76,1271.86 -12.83,4.37 -433.76,-1271.86"
         style="fill:#413b3b;fill-opacity:1;fill-rule:nonzero;stroke:none"
         id="path82" /><path
         d="m 3541.47,7005.11 163.9,-674.65 c 0,0 52.32,-881.98 -274.04,-1254.05 2.52,8.3 -323.82,1791.14 -323.82,1791.14 0,0 127.91,90.16 433.96,137.56"
         style="fill:#191615;fill-opacity:1;fill-rule:nonzero;stroke:none"
         id="path84" /><path
         d="m 5102.47,6495.17 251.32,-258.61 -1010.18,-780.78 c -123.33,-95.32 -298.57,-82.85 -407.17,28.97 l -1182.4,808.09 c 0,0 1.6,425.17 426.55,613.05 -1.04,-0.46 974.76,-1067.79 974.76,-1067.79 l 947.12,657.07"
         style="fill:#413b3b;fill-opacity:1;fill-rule:nonzero;stroke:none"
         id="path86" /><path
         d="m 3871.2,8244.13 c 90.69,-78.18 103.43,-211.93 36.87,-311.45 -27.46,-41.05 -38.29,-93.03 -25.71,-144.8 l 19.07,-78.52 c 7.21,-29.64 -10.99,-59.51 -40.63,-66.71 -29.65,-7.2 -59.52,10.99 -66.72,40.63 l -15.21,62.62 c -7.67,31.59 -39.51,50.98 -71.1,43.31 -31.59,-7.68 -50.97,-39.51 -43.3,-71.1 l 44.67,-183.91 c 11.89,-48.93 -9,-99.96 -51.79,-126.51 l -207.88,368.2 c -110.51,195.72 -3.32,442.84 215.09,495.9 l 61.26,14.88 c 55.61,13.51 104.41,-7.23 145.38,-42.54"
         style="fill:#ffffff;fill-opacity:1;fill-rule:nonzero;stroke:none"
         id="path88" /><path
         d="m 4503.38,8044.39 c 0,0 11.17,-318.2 459.71,-260.46 27.14,-15.36 174.18,-391.15 174.18,-391.15 l 290.36,473.34 -204.23,435.13 -421.34,51.03"
         style="fill:#ffffff;fill-opacity:1;fill-rule:nonzero;stroke:none"
         id="path90" /><path
         d="m 5242.5,6609.95 253.6,-270.74 -142.31,-102.65 -251.79,253.45 140.5,119.94"
         style="fill:#ffffff;fill-opacity:1;fill-rule:nonzero;stroke:none"
         id="path92" /><path
         d="m 6277.91,2303.84 c 2.2,-9.04 44.68,-183.91 44.68,-183.91 0,0 -184.83,-67.25 -189.95,-46.15 -5.13,21.11 -44.68,183.92 -44.68,183.92 l 189.95,46.14"
         style="fill:#ffffff;fill-opacity:1;fill-rule:nonzero;stroke:none"
         id="path94" /><path
         d="m 6096.55,1998.91 31.89,92.19 189.02,49.93 c 4.5,-18.54 141.52,-379.61 212.05,-531.51 8.88,-19.13 -9.17,-39.68 -29.29,-33.35 -76.71,24.12 -218.1,91.94 -312.31,322.65 -2.28,-3.74 -40.09,-27.02 -40.09,-27.02 l -51.27,127.11"
         style="fill:#2f2b2a;fill-opacity:1;fill-rule:nonzero;stroke:none"
         id="path96" /><path
         d="m 6245.82,2118.1 c 0.09,-0.32 39.51,-167.57 127.32,-329.33 1.78,-3.28 5.9,-4.5 9.18,-2.72 3.29,1.79 4.51,5.9 2.73,9.19 -43.39,79.91 -74.95,161.49 -95.61,223.05 -10.34,30.77 -17.96,56.54 -22.98,74.6 -2.52,9.03 -4.39,16.13 -5.62,20.96 -1.24,4.83 -1.83,7.35 -1.83,7.36 -0.86,3.64 -4.51,5.9 -8.15,5.04 -3.65,-0.86 -5.9,-4.51 -5.04,-8.15"
         style="fill:#1a1716;fill-opacity:1;fill-rule:nonzero;stroke:none"
         id="path98" /><path
         d="m 6493.62,1694.34 -0.1,-0.02 c -0.75,-0.14 -5.06,-0.88 -11.4,-0.88 -6.96,0 -16.35,0.89 -26.19,4.34 -9.86,3.45 -20.18,9.37 -29.43,19.65 l -17.97,19.98 6.35,-26.11 c 0.33,-1.32 0.76,-2.56 1.35,-4.5 1.74,-5.65 4.53,-15.89 4.52,-27.36 0,-8 -1.34,-16.51 -5.16,-24.61 -3.85,-8.1 -10.13,-15.91 -20.69,-22.72 l 7.33,-11.4 c 12.55,8.04 20.75,18.01 25.61,28.33 4.88,10.34 6.47,20.91 6.47,30.4 -0.01,9.08 -1.45,17.22 -2.96,23.49 -0.75,3.13 -1.53,5.79 -2.16,7.83 -0.61,1.99 -1.12,3.58 -1.14,3.74 l -6.59,-1.6 -5.04,-4.53 c 10.9,-12.13 23.37,-19.32 35.04,-23.39 11.68,-4.07 22.55,-5.09 30.66,-5.09 8.44,0 13.9,1.11 14.24,1.18 l -2.74,13.27"
         style="fill:#1a1716;fill-opacity:1;fill-rule:nonzero;stroke:none"
         id="path100" /><path
         d="m 6330.34,1981.18 -73.1,-17.76 c -3.64,-0.89 -5.87,-4.55 -4.99,-8.19 0.89,-3.63 4.55,-5.87 8.19,-4.98 l 73.1,17.76 c 3.64,0.88 5.87,4.55 4.99,8.19 -0.89,3.63 -4.55,5.86 -8.19,4.98"
         style="fill:#1a1716;fill-opacity:1;fill-rule:nonzero;stroke:none"
         id="path102" /><path
         d="m 6350.93,1947.39 -73.11,-17.75 c -3.63,-0.89 -5.87,-4.55 -4.98,-8.19 0.88,-3.63 4.55,-5.87 8.18,-4.98 l 73.11,17.75 c 3.63,0.89 5.87,4.55 4.98,8.19 -0.88,3.63 -4.54,5.86 -8.18,4.98"
         style="fill:#1a1716;fill-opacity:1;fill-rule:nonzero;stroke:none"
         id="path104" /><path
         d="m 6368.89,1912.98 -73.11,-17.77 c -3.63,-0.88 -5.87,-4.54 -4.98,-8.18 0.88,-3.64 4.55,-5.87 8.18,-4.99 l 73.11,17.77 c 3.63,0.88 5.87,4.55 4.98,8.18 -0.88,3.64 -4.55,5.87 -8.18,4.99"
         style="fill:#1a1716;fill-opacity:1;fill-rule:nonzero;stroke:none"
         id="path106" /><path
         d="m 6243.1,2104.3 -0.78,6.73 -87.16,-10.03 c -16.11,-1.88 -27.67,-15.52 -27.67,-31 0,-2.44 0.29,-4.93 0.9,-7.41 3.6,-14.78 16.74,-23.9 30.41,-23.87 6.16,-0.01 12.51,1.86 18.03,5.79 l 71.5,50.86 0.02,0.02 c 2.34,1.61 3.69,4.52 3.62,7.02 -0.01,2.21 -0.79,4.23 -2.27,5.88 -1.46,1.64 -3.87,2.83 -6.37,2.81 l -1.14,-0.08 0.91,-6.72 -0.78,6.73 0.78,-6.73 0.9,-6.71 -0.67,4.95 v -5 l 0.67,0.05 -0.67,4.95 v -5 4.95 l -3.65,-3.33 c 0.8,-0.93 2.28,-1.64 3.65,-1.62 v 4.95 l -3.65,-3.33 3.56,3.25 h -4.82 c 0.01,-1.25 0.43,-2.32 1.26,-3.25 l 3.56,3.25 h -4.82 4.9 l -2.86,3.99 c -1.24,-0.82 -2.1,-2.61 -2.04,-3.99 h 4.9 l -2.86,3.99 0.02,0.02 -71.5,-50.86 c -3.21,-2.28 -6.69,-3.28 -10.18,-3.29 -7.8,0.03 -15.22,5.12 -17.25,13.52 -0.34,1.43 -0.5,2.83 -0.5,4.21 0,8.71 6.54,16.51 15.66,17.53 l 87.25,10.05 0.04,0.01 -0.9,6.71"
         style="fill:#1a1716;fill-opacity:1;fill-rule:nonzero;stroke:none"
         id="path108" /><path
         d="m 6253.8,2104.02 -0.59,-6.75 87.4,-7.61 c 0.93,-0.08 1.85,-0.12 2.76,-0.12 17.13,0.01 31.17,13.91 31.18,31.22 l -0.01,1.13 -0.01,0.03 c -0.3,8.69 -4.13,16.33 -9.83,21.64 -5.7,5.33 -13.3,8.47 -21.37,8.48 -4.2,0 -8.52,-0.87 -12.65,-2.71 l -80.23,-35.51 c -3.29,-1.38 -5.26,-4.93 -5.15,-7.9 0,-2 0.65,-3.95 2.03,-5.6 1.34,-1.66 3.58,-2.87 5.85,-3.05 h 0.03 l 0.59,6.75 0.62,6.75 -0.45,-4.88 3.74,3.13 c -0.76,0.96 -2.13,1.67 -3.29,1.75 l -0.45,-4.88 3.74,3.13 -3.7,-3.1 h 4.84 c -0.01,1.09 -0.35,2.15 -1.14,3.1 l -3.7,-3.1 h 4.84 -4.9 l 2,-4.49 c 1.74,0.7 3.01,2.88 2.9,4.49 h -4.9 l 2,-4.49 80.22,35.51 c 2.41,1.07 4.8,1.54 7.16,1.54 4.5,0.01 8.86,-1.78 12.11,-4.82 3.25,-3.05 5.36,-7.21 5.55,-12.23 v 0.03 l 0.01,-0.7 c -0.02,-9.78 -7.99,-17.65 -17.63,-17.67 l -1.58,0.07 -87.4,7.61 h 0.03 l -0.62,-6.75"
         style="fill:#1a1716;fill-opacity:1;fill-rule:nonzero;stroke:none"
         id="path110" /><path
         d="m 6187.91,1898.82 -59.47,192.28 -31.89,-92.19 51.27,-127.11 40.09,27.02"
         style="fill:#5c5455;fill-opacity:1;fill-rule:nonzero;stroke:none"
         id="path112" /><path
         d="m 5438.2,4632.9 c 115.18,-44.6 201.98,-117.09 265.49,-190.28 78.24,-90.17 134.05,-197.59 164.94,-312.91 l 489.05,-1825.85 -333.98,-81.13 -736.54,1842.95"
         style="fill:#413b3b;fill-opacity:1;fill-rule:nonzero;stroke:none"
         id="path114" /><path
         d="m 5609.8,3999.09 550.13,-1671.38 12.87,4.24 -550.12,1671.38"
         style="fill:#2f2b2a;fill-opacity:1;fill-rule:nonzero;stroke:none"
         id="path116" /><path
         d="m 7755.26,2175.16 222.9,-56.96 136.2,-176.38 -94.79,-23.04 155.88,-450.36 -552.44,544.22 132.25,162.52"
         style="fill:#cc4669;fill-opacity:1;fill-rule:nonzero;stroke:none"
         id="path118" /><path
         d="m 7504.18,2493.83 442.21,-556.09 c 24.07,-35.62 18.77,-83.43 -12.52,-112.9 -34.31,-32.32 -88.05,-31.72 -121.63,1.37 l -448.08,421.37 50.36,77.65 c 17.92,27.62 34.2,56.25 48.77,85.76 l 40.89,82.84"
         style="fill:#f0d1a3;fill-opacity:1;fill-rule:nonzero;stroke:none"
         id="path120" /><path
         d="m 2601.59,1491.69 6.59,5.27 -45.1,56.42 c -7.1,8.91 -17.58,13.46 -27.94,13.44 -9.85,0.02 -19.85,-4.09 -26.96,-12.27 -5.99,-6.85 -8.84,-15.26 -8.83,-23.38 0.01,-8.19 2.8,-16.15 7.92,-22.56 5.09,-6.4 12.66,-11.21 21.71,-12.78 l 93.14,-16.31 -13.94,17.44 -6.59,-5.27 1.45,8.31 -71.15,12.46 c -4.96,0.88 -8.72,3.33 -11.44,6.7 -2.7,3.37 -4.22,7.7 -4.21,12.01 0.02,4.3 1.4,8.52 4.67,12.29 3.81,4.36 8.96,6.46 14.23,6.48 5.54,-0.02 10.95,-2.35 14.75,-7.1 l 45.1,-56.42 6.6,5.27 1.45,8.31 -1.45,-8.31"
         style="fill:#14100f;fill-opacity:1;fill-rule:nonzero;stroke:none"
         id="path122" /><path
         d="m 2602.93,1420.37 -57.97,7 c -4.42,0.54 -8.44,-2.62 -8.98,-7.04 -0.53,-4.43 2.62,-8.45 7.05,-8.98 l 57.97,-7 c 4.42,-0.54 8.44,2.62 8.98,7.04 0.53,4.43 -2.62,8.45 -7.05,8.98"
         style="fill:#14100f;fill-opacity:1;fill-rule:nonzero;stroke:none"
         id="path124" /><path
         d="m 2601.88,1385.24 -57.98,7.02 c -4.42,0.53 -8.44,-2.62 -8.98,-7.05 -0.53,-4.42 2.62,-8.44 7.05,-8.98 l 57.97,-7.01 c 4.42,-0.53 8.44,2.62 8.98,7.04 0.53,4.43 -2.62,8.45 -7.04,8.98"
         style="fill:#14100f;fill-opacity:1;fill-rule:nonzero;stroke:none"
         id="path126" /><path
         d="m 2600.84,1354.62 -57.97,7 c -4.43,0.54 -8.45,-2.62 -8.98,-7.04 -0.54,-4.43 2.62,-8.45 7.04,-8.98 l 57.97,-7 c 4.43,-0.54 8.45,2.62 8.98,7.04 0.54,4.42 -2.62,8.44 -7.04,8.98"
         style="fill:#14100f;fill-opacity:1;fill-rule:nonzero;stroke:none"
         id="path128" /><path
         d="m 2594.03,1496.63 -7.33,-4.19 35.83,-62.72 c 6.67,-11.69 18.84,-18.05 31.09,-18.03 8.03,-0.01 16.24,2.73 22.96,8.37 8.61,7.21 12.81,17.43 12.77,27.3 0,7.19 -2.13,14.3 -6.25,20.34 -4.1,6.05 -10.27,10.99 -17.98,13.61 l -89.49,30.51 11.07,-19.38 7.33,4.19 -2.73,-7.99 68.38,-23.31 c 4.22,-1.45 7.3,-3.97 9.47,-7.13 2.16,-3.16 3.33,-7 3.32,-10.84 -0.03,-5.3 -2.08,-10.41 -6.75,-14.37 -3.61,-3.02 -7.83,-4.41 -12.1,-4.42 -6.55,0.02 -12.89,3.31 -16.43,9.52 l -35.83,62.72 -7.33,-4.18 -2.73,-7.99 2.73,7.99"
         style="fill:#14100f;fill-opacity:1;fill-rule:nonzero;stroke:none"
         id="path130" /><path
         d="m 2601.31,1264.52 -0.01,-0.01 c -0.22,-0.61 -3.83,-9.35 -11.91,-17.59 -8.15,-8.25 -20.29,-16.07 -39.08,-16.11 -5.19,0 -10.91,0.61 -17.22,2.04 -3.54,0.8 -7.06,-1.42 -7.86,-4.97 -0.81,-3.54 1.42,-7.06 4.96,-7.86 7.19,-1.63 13.9,-2.37 20.12,-2.37 23.44,-0.05 39.68,10.61 49.42,21.06 9.82,10.46 13.68,20.67 13.88,21.17 1.28,3.4 -0.43,7.19 -3.83,8.48 -3.4,1.28 -7.19,-0.44 -8.47,-3.84"
         style="fill:#14100f;fill-opacity:1;fill-rule:nonzero;stroke:none"
         id="path132" /><path
         d="m 5686.86,6158.73 438.81,-315.47 424.57,113.86 -23.72,104.36 -839.66,97.25"
         style="fill:#f0d1a3;fill-opacity:1;fill-rule:nonzero;stroke:none"
         id="path134" /><path
         d="m 4323.57,1630.46 c 0,0 6.83,-221.66 -208.47,-427.91 l -20,-326.46 312.48,476.1 121.25,-32.16 0.51,234.96 -205.77,75.47"
         style="fill:#cc4669;fill-opacity:1;fill-rule:nonzero;stroke:none"
         id="path136" /></g></g></svg>