<?xml version="1.0" encoding="UTF-8" standalone="no"?>
<svg
   xmlns:dc="http://purl.org/dc/elements/1.1/"
   xmlns:cc="http://creativecommons.org/ns#"
   xmlns:rdf="http://www.w3.org/1999/02/22-rdf-syntax-ns#"
   xmlns:svg="http://www.w3.org/2000/svg"
   xmlns="http://www.w3.org/2000/svg"
   version="1.1"
   id="svg2"
   xml:space="preserve"
   width="2173.6567"
   height="2356.3108"
   viewBox="0 0 2173.6568 2356.3108"><metadata
     id="metadata8"><rdf:RDF><cc:Work
         rdf:about=""><dc:format>image/svg+xml</dc:format><dc:type
           rdf:resource="http://purl.org/dc/dcmitype/StillImage" /></cc:Work></rdf:RDF></metadata><defs
     id="defs6" /><g
     id="g10"
     transform="matrix(1.3333333,0,0,-1.3333333,-418.76034,2746.6739)"><g
       id="g12"
       transform="scale(0.1)"><path
         d="m 10385.5,8364 c 0,0 -685.79,-851.5 -3032.76,-2656.5 0,0 -2089.93,-1425.9 -2533.83,-2573.4 -42.77,-57.8 -154.19,824.2 468.47,1389.2 769.91,832.9 903.04,2083.7 2562.81,2837.4 151.86,68.9 291.18,163.2 410.19,280.1 126.01,123.7 267.14,308.7 342.98,575.4 -0.22,35.9 297.64,692.1 297.64,692.1 L 10385.5,8364"
         style="fill:#f7debb;fill-opacity:1;fill-rule:nonzero;stroke:none"
         id="path14" /><path
         d="m 5303.39,4543.8 c 11.58,-3.5 -190.54,-471.6 -311.5,-692.5 -56.71,-103.6 -130.35,-352.1 -90.19,-463.2 60.84,-168.3 -29.39,-294.3 -124.03,-348.2 -2,4.6 -227.48,509.6 -231.17,517.9 -2.84,6.3 279.48,539.8 279.48,539.8 0,0 134.71,227.5 -121.3,167.2 10.87,1.6 -341.05,-86.3 -341.05,-86.3 l -16.28,98.5 402.49,78.2 c 50.29,10.4 92.31,37.5 113.84,76.3 1.77,3.2 3.33,6.4 4.65,9.5 3.25,7.7 6.37,15.5 10.31,22.9 23.72,44.5 113.02,176.1 424.75,79.9"
         style="fill:#b81d23;fill-opacity:1;fill-rule:nonzero;stroke:none"
         id="path16" /><path
         d="m 9333.23,15989.3 85.11,-1369.2 c 31.01,756.3 -85.11,1369.2 -85.11,1369.2"
         style="fill:#b81d23;fill-opacity:1;fill-rule:nonzero;stroke:none"
         id="path18" /><g
         id="g20"
         transform="scale(1.17648)"><path
           d="m 15719.2,6195.78 550.9,-89.85 29.9,-437.06 -652.6,173.65 71.8,353.26"
           style="fill:#ffffff;fill-opacity:1;fill-rule:nonzero;stroke:none"
           id="path22" /></g><g
         id="g24"
         transform="scale(1.19283)"><path
           d="m 16290.9,5988.09 9.1,-375.32 -121.1,14.84 110.4,-892.16 c 0,0 -187.9,118.95 -226.6,387.39 -12.4,84.76 -36.4,167.67 -76.1,243.62 -38,72.77 -88.8,148.39 -145.5,174.63 -36.7,10.23 -2.6,126.42 167.6,106.47 -16.5,12.91 15.2,389.57 15.2,389.57 l 267,-49.04"
           style="fill:#2f2b2a;fill-opacity:1;fill-rule:nonzero;stroke:none"
           id="path26" /></g><g
         id="g28"
         transform="scale(1.19283)"><path
           d="m 16290.9,5988.09 9.1,-375.32 -121.1,14.84 -48.2,389.91 160.2,-29.43"
           style="fill:#5c5455;fill-opacity:1;fill-rule:nonzero;stroke:none"
           id="path30" /></g><g
         id="g32"
         transform="scale(1.06676)"><path
           d="m 7547.58,15667 2050.19,633 214.1,-1347.4 -2264.29,714.4"
           style="fill:#191615;fill-opacity:1;fill-rule:nonzero;stroke:none"
           id="path34" /></g><g
         id="g36"
         transform="scale(1.17415)"><path
           d="m 10433.6,15115.1 652.3,80.7 c 803.6,99.4 1535.6,-471.5 1635,-1275.1 42.6,-343.8 261.4,-640.5 577.3,-782.7 l 1387.5,-624.5 c 1128,-507.6 1614.3,-1846.3 1075.2,-2959.54 v -0.01 C 15257,8513.28 14032.3,8041.71 12960.6,8475.56 l -404.3,163.69 -3507.57,5317.05 1384.87,1158.8"
           style="fill:#2f2b2a;fill-opacity:1;fill-rule:nonzero;stroke:none"
           id="path38" /></g><g
         id="g40"
         transform="scale(1.14623)"><path
           d="m 13557,11466.9 c 0,0 2743,5.8 2425,-1962.74 14.6,21.7 -962.5,-1687.99 -3119.8,-654.52 l 694.8,2617.26"
           style="fill:#191615;fill-opacity:1;fill-rule:nonzero;stroke:none"
           id="path42" /></g><g
         id="g44"
         transform="scale(1.19298)"><path
           d="m 8633.57,14227.8 -544.65,81.8 c -158.03,24.2 -280.74,150.4 -300.37,309.1 -20.4,164.9 -32.17,427.2 223.44,496.4 l 40.18,14.7 c 59.53,21.7 96.18,81.6 88.41,144.5 l -32.31,212.1 1.75,-14.1 c -0.99,8.8 5.61,16.7 14.27,18.6 l 30.09,8.1 c 28.86,6.4 42.65,41.6 23.47,64 -1.03,1.2 -2.13,2.4 -3.31,3.5 0,0 -62.95,58.8 -102.66,134.3 -20.97,39.8 -21.45,77.3 -33.32,128.5 -65.54,282.9 -346.01,470.7 -642.22,434.1 l -192.18,-23.8 c -473.19,-58.5 -809.34,-489.6 -750.81,-962.8 l 27.28,-220.5 672.16,-565.2 25.93,-209.6 c 15.66,-126.5 -74.26,-241.8 -200.83,-257.5 -147.43,-18.2 -252.16,-152.5 -233.93,-299.9 l 56.67,-458.1 1939.39,236.8 -106.45,725"
           style="fill:#f7debb;fill-opacity:1;fill-rule:nonzero;stroke:none"
           id="path46" /></g><path
         d="M 8642.94,14808.3 7542.75,12848.1 c -167.66,-253.7 -499.36,-340.5 -769.81,-201.6 -284.16,146.1 -402.69,490.1 -268.76,780.2 l 1228.77,2661 414.79,-144.5 495.2,-1134.9"
         style="fill:#f7debb;fill-opacity:1;fill-rule:nonzero;stroke:none"
         id="path48" /><g
         id="g50"
         transform="scale(1.1402)"><path
           d="m 16153.2,5895.79 146.8,574.99 -3717.8,1380.28 977.4,2936.44 -1841.9,-840.11 -325.9,-1868.3 1325.9,-1421.85 c 0,0 1410.2,-830.38 3435.5,-761.45"
           style="fill:#2f2b2a;fill-opacity:1;fill-rule:nonzero;stroke:none"
           id="path52" /></g><path
         d="m 13287.5,10408.2 c 0,0 531.7,-875.4 1374.5,-3517.9 0,0 590.7,-2295.4 1460.3,-3051.9 37.3,-56.1 -775.3,126.6 -1074.8,855.2 -488.6,943.5 -1548.1,1459.1 -1683.5,3161.4 -12.4,155.8 -51.1,308.5 -116.2,450.6 -68.8,150.4 -186.8,333.6 -397.7,485.4 -31.7,11.3 -515,482.6 -515,482.6 l 952.4,1134.6"
         style="fill:#f7debb;fill-opacity:1;fill-rule:nonzero;stroke:none"
         id="path54" /><path
         d="m 13630.3,11343.1 c -21.8,-201.2 71.1,-443.9 23.5,-675.7 -64.6,-314.9 -220.8,-582.5 -429.7,-821.9 -209.1,-239.9 -367.5,-466.2 -423.7,-788.4 -47.5,-271.7 43.8,-524.1 65.2,-793.5 50.9,-638.9 -384.1,-1044.2 -832.9,-1411.1 -159.2,-130 -320.4,-280.1 -360.8,-489.3 -40.6,-209.4 -9.6,-433 -48,-646.4 -54.2,-301.5 -363.3,-844.8 -781.5,-751 l -313.2,5119.2 3101.1,1258.1"
         style="fill:#b81d23;fill-opacity:1;fill-rule:nonzero;stroke:none"
         id="path56" /><g
         id="g58"
         transform="scale(1.01258)"><path
           d="m 8020.12,15401.2 c -3.33,143 34.92,298.2 171.66,418.5 157.73,138.6 383.81,167.2 575.26,80.9 31.55,-14.2 64.84,-31.7 99.43,-53.2 103.01,-64.1 227.6,-86.9 345.43,-58.1 59.81,14.6 125.15,42.1 191.69,90.1 41.66,30 78.74,65.9 111.76,105.2 65.48,78 314.71,315.4 794.55,209.8 -29.3,-3.6 274.5,-2218.6 274.5,-2218.6 l 1058.9,-96.7 c 0,0 999.4,-1437 1018.1,-1448.9 18.7,-12 -952.9,-323.3 -952.9,-323.3 l -625.9,-1735.2 -1020.7,-2399.97 491.9,-3976.68 -909.76,-112.59 C 7421.92,3607.62 5397.71,5186.16 5122.86,7408.31 v 0 c -204.7,1654.89 624.81,3266.39 2090.63,4061.39 l 1009.28,547.4 c 568.54,308.4 862.36,957.4 718.95,1588.1 l -184.91,813.1 -491.18,451 c -149.63,137.3 -240.78,328.8 -245.51,531.9"
           style="fill:#b81d23;fill-opacity:1;fill-rule:nonzero;stroke:none"
           id="path60" /></g><path
         d="m 12807.8,13979.1 103.6,-766.5 -2709,-2380.4 c -229.71,-189.6 -362.6,-425.1 -442.78,-642.6 -98.79,-267.8 -132.81,-555.3 -104.4,-839.4 l 449.88,-4498 815.7,100.9 89.4,4745.5 3817.8,1937.3 h 0.1 c 492.6,241.3 801.5,778 714,1485.7 l -1401.9,341.8 -1332.4,515.7"
         style="fill:#413b3b;fill-opacity:1;fill-rule:nonzero;stroke:none"
         id="path62" /><path
         d="m 12694.6,14158.4 c 0,0 641.2,-2121.3 2844.8,-1014.7 v 0 c -1767.8,198.6 -1956.2,1275.3 -2370.3,2367.9 l -71,187.4 -403.5,-1540.6"
         style="fill:#8f8c8b;fill-opacity:1;fill-rule:nonzero;stroke:none"
         id="path64" /><g
         id="g66"
         transform="scale(1.12432)"><path
           d="m 10562,15743.8 -68.7,556.2 -48.1,-73.4 c -183.2,-279.6 -564.56,-346 -831.47,-144.8 l -40.74,30.7 71.78,-580.4 -538.37,-66.6 1100.1,-1450.1 849.8,1789.5 -494.3,-61.1"
           style="fill:#ffffff;fill-opacity:1;fill-rule:nonzero;stroke:none"
           id="path68" /></g><g
         id="g70"
         transform="scale(1.25579)"><path
           d="m 9048.66,14065.4 346.08,528.2 98.82,727.3 c 64.98,478.7 -151.22,979.1 -794.24,896 -23.41,-3 -46.19,-2.1 -67.45,-4.8 -306.02,-37.8 -523.49,-316.6 -485.59,-622.7 l 16.96,-137.2 c 7.01,-57 -19.35,-112.2 -51.52,-160.6 -8.2,-12.3 -16.09,-24.8 -23.57,-37.6 l -50.57,-86.8 c -22.53,-28.6 0.56,-63.5 18.71,-63.4 9.96,0 20.71,0 31.62,0 38.06,-0.1 70.15,-28.5 74.85,-66.3 l 34.24,-276.7 c 9.96,-80.5 83.22,-137.7 163.73,-127.7 l 129.71,16 c 3.43,0.5 6.93,0.8 10.36,1.1 157.59,12.3 252.83,-157.6 182.59,-299.1 l 365.27,-285.7"
           style="fill:#f7debb;fill-opacity:1;fill-rule:nonzero;stroke:none"
           id="path72" /></g><g
         id="g74"
         transform="scale(1.09071)"><path
           d="m 10418.2,16194.2 -352.8,85 c -77.4,20.8 -151.3,-43.4 -141.39,-122.9 9.08,-73.5 85.19,-118.5 153.89,-91.1 l 340.3,129"
           style="fill:#5f62b7;fill-opacity:1;fill-rule:nonzero;stroke:none"
           id="path76" /></g><g
         id="g78"
         transform="scale(1.0973)"><path
           d="m 10355.6,16096.8 294.8,164.4 c 69.5,38.8 156.3,-5.2 166.1,-84.3 9,-73 -53.5,-134.8 -126.4,-125 l -334.5,44.9"
           style="fill:#5f62b7;fill-opacity:1;fill-rule:nonzero;stroke:none"
           id="path80" /></g><g
         id="g82"
         transform="scale(1.17254)"><path
           d="m 9038.64,16024.5 c -68.48,0 -127.84,51.1 -136.45,120.8 -9.38,75.5 44.26,144.3 119.74,153.6 5.71,0.7 11.43,1.1 17.06,1.1 68.57,0 127.93,-51.1 136.54,-120.8 9.38,-75.5 -44.26,-144.3 -119.74,-153.7 -5.8,-0.7 -11.51,-1 -17.15,-1"
           style="fill:#fae9d3;fill-opacity:1;fill-rule:nonzero;stroke:none"
           id="path84" /></g><g
         id="g86"
         transform="scale(1.17254)"><path
           d="m 9038.64,16024.5 c -68.48,0 -127.84,51.1 -136.45,120.8 -9.38,75.5 44.26,144.3 119.74,153.6 5.71,0.7 11.43,1.1 17.06,1.1 68.57,0 127.93,-51.1 136.54,-120.8 9.38,-75.5 -44.26,-144.3 -119.74,-153.7 -5.8,-0.7 -11.51,-1 -17.15,-1"
           style="fill:#ecbbc1;fill-opacity:1;fill-rule:nonzero;stroke:none"
           id="path88" /></g><path
         d="m 7236.65,13252.3 994.6,1666.1 c 7.3,12.2 3.31,28.1 -8.93,35.4 -12.24,7.3 -28.08,3.3 -35.38,-8.9 l -994.6,-1666.1 c -7.31,-12.3 -3.31,-28.1 8.93,-35.4 12.23,-7.3 28.07,-3.3 35.38,8.9"
         style="fill:#b5a27c;fill-opacity:1;fill-rule:nonzero;stroke:none"
         id="path90" /><path
         d="m 8999.79,15448.4 -365.2,-770.2 404.87,-131.5 268.81,620.3 -308.48,281.4"
         style="fill:#ffffff;fill-opacity:1;fill-rule:nonzero;stroke:none"
         id="path92" /><g
         id="g94"
         transform="scale(1.09017)"><path
           d="m 11402.6,16300 237.4,-1919.3 976.6,1812.9 -1214,106.4"
           style="fill:#2f2b2a;fill-opacity:1;fill-rule:nonzero;stroke:none"
           id="path96" /></g><path
         d="m 13315,13687.3 c 6.1,-49.8 -29.3,-95.2 -79.1,-101.4 -49.9,-6.2 -95.3,29.2 -101.4,79.1 -6.2,49.8 29.2,95.2 79.1,101.4 49.8,6.2 95.2,-29.2 101.4,-79.1"
         style="fill:#2f2b2a;fill-opacity:1;fill-rule:nonzero;stroke:none"
         id="path98" /><path
         d="m 13602.2,13369.4 c 6.2,-49.9 -29.3,-95.3 -79.1,-101.5 -49.9,-6.1 -95.3,29.3 -101.4,79.1 -6.2,49.9 29.2,95.3 79.1,101.4 49.8,6.2 95.2,-29.2 101.4,-79"
         style="fill:#2f2b2a;fill-opacity:1;fill-rule:nonzero;stroke:none"
         id="path100" /><path
         d="m 10312.3,9275.4 182.6,-4204.1 32.4,1.4 -182.6,4204.1"
         style="fill:#2f2b2a;fill-opacity:1;fill-rule:nonzero;stroke:none"
         id="path102" /><path
         d="m 14404.4,12729.8 c 0,-0.3 -0.3,-5.5 -0.3,-14.6 0,-20.7 1.5,-61.5 11.4,-111.4 14.8,-74.7 48.5,-170.5 125.4,-248.3 38.4,-38.8 87.6,-72.9 149.9,-97.1 62.2,-24.1 137.4,-38.4 227.8,-38.4 38.3,0 79.3,2.5 123.2,8 l -4.9,39.6 c -42.5,-5.2 -81.8,-7.7 -118.3,-7.7 -115,0.1 -201.1,24.2 -266.2,60.7 -48.9,27.4 -86.1,61.9 -114.7,99.3 -42.9,56.2 -66.5,119.3 -79.2,173.9 -12.6,54.5 -14.4,100.3 -14.4,121.4 0,4.1 0,7.2 0.1,9.3 0,1.1 0.1,1.9 0.1,2.4 v 0.5 0.1 l -39.9,2.3"
         style="fill:#2f2b2a;fill-opacity:1;fill-rule:nonzero;stroke:none"
         id="path104" /><g
         id="g106"
         transform="scale(1.09071)"><path
           d="m 9387.01,15942.1 1062.89,-1242.6 944.7,1600.5 596.1,-1200.2 c 0,0 -332.2,-2141 -355.6,-2080.9 -424.2,1090.1 -557.4,-582.8 -1148.3,-359.8 -417.6,157.6 -713.34,506.1 -768.17,949.1 v 0 l -331.62,2333.9"
           style="fill:#8f8c8b;fill-opacity:1;fill-rule:nonzero;stroke:none"
           id="path108" /></g><g
         id="g110"
         transform="scale(1.06739)"><path
           d="m 11520.3,13978 -1916.51,2322 -23.42,-19.3 1916.53,-2322"
           style="fill:#413b3b;fill-opacity:1;fill-rule:nonzero;stroke:none"
           id="path112" /></g><g
         id="g114"
         transform="scale(1.09954)"><path
           d="m 11305.4,16161.1 185.4,-1498.6 c 0,0 571.8,-1834.7 1522,-2340.7 -11.5,14.9 -718.7,3893.1 -718.7,3893.1 0,0 -329.6,85.1 -988.7,-53.8"
           style="fill:#191615;fill-opacity:1;fill-rule:nonzero;stroke:none"
           id="path116" /></g><g
         id="g118"
         transform="scale(1.09527)"><path
           d="m 8498.58,13847.7 -245.42,-566.4 2654.14,-840.9 c 325.4,-99.5 641.3,68.5 809.2,373.5 l 1805.9,2530.2 c 0,0 -251.7,871.3 -1359.2,955.9 2.5,-0.1 -1166.6,-2933.4 -1166.6,-2933.4 l -2498.02,481.1"
           style="fill:#413b3b;fill-opacity:1;fill-rule:nonzero;stroke:none"
           id="path120" /></g><g
         id="g122"
         transform="scale(1.2638)"><path
           d="m 8837.29,14819.5 82.92,393.5 c 20.5,82.5 35.77,116.6 96.86,124.2 61.08,7.5 116.63,-35.8 124.22,-96.9 l 44,-355.4 c 11.63,-94.6 82.76,-170.9 176.29,-189.3 l 121.62,790.8 c 137.52,612.1 -266.82,860.2 -553.41,786.1 -161.18,-41.7 -329.8,-45.3 -492.09,-8.3 -150.34,34.3 -297.43,63.6 -425.22,-9.3 -144.76,-82.5 -221.53,-246.5 -201.33,-411.9 21.1,-172.7 243.9,-357.3 512.06,-324.2 v 0 c 3.96,0.5 7.91,0.9 11.79,1.3 218.47,19.5 394.76,-177.2 358.68,-393.5 -15.59,-93.6 16.77,-188.8 86.16,-253.5 l 57.45,-53.6"
           style="fill:#2f2b2a;fill-opacity:1;fill-rule:nonzero;stroke:none"
           id="path124" /></g><path
         d="m 14263.4,11356.3 -428.1,-1950.7 19,-4.1 428.1,1950.6 -19,4.2"
         style="fill:#191615;fill-opacity:1;fill-rule:nonzero;stroke:none"
         id="path126" /><g
         id="g128"
         transform="scale(1.13582)"><path
           d="m 16300,6248.29 -3726.3,1074.64 -4.8,-16.46 3726.3,-1074.56"
           style="fill:#191615;fill-opacity:1;fill-rule:nonzero;stroke:none"
           id="path130" /></g><g
         id="g132"
         transform="scale(1.16353)"><path
           d="m 7893.38,16164.3 c 0,0 136,135.7 311.87,42.2 6.69,-3.5 8.81,-12.3 7.32,-19.8 -2.58,-12.9 -17.15,-20.7 -28.52,-14 -68.02,40 -141.98,46.8 -290.67,-8.4"
           style="fill:#191615;fill-opacity:1;fill-rule:nonzero;stroke:none"
           id="path134" /></g><g
         id="g136"
         transform="scale(1.18558)"><path
           d="m 9626.05,16132.1 c -41.76,0 -77.94,31.2 -83.17,73.7 -5.74,46 26.99,87.9 72.96,93.6 3.54,0.4 7,0.6 10.46,0.6 41.75,0 77.85,-31.1 83.16,-73.6 5.65,-46 -26.99,-87.9 -73.04,-93.6 -3.46,-0.4 -6.92,-0.7 -10.37,-0.7"
           style="fill:#fae9d3;fill-opacity:1;fill-rule:nonzero;stroke:none"
           id="path138" /></g><g
         id="g140"
         transform="scale(1.18558)"><path
           d="m 9626.05,16132.1 c -41.76,0 -77.94,31.2 -83.17,73.7 -5.74,46 26.99,87.9 72.96,93.6 3.54,0.4 7,0.6 10.46,0.6 41.75,0 77.85,-31.1 83.16,-73.6 5.65,-46 -26.99,-87.9 -73.04,-93.6 -3.46,-0.4 -6.92,-0.7 -10.37,-0.7"
           style="fill:#ecbbc1;fill-opacity:1;fill-rule:nonzero;stroke:none"
           id="path142" /></g><g
         id="g144"
         transform="scale(1.14938)"><path
           d="m 9276.49,16005.3 c 0,0 264.92,66.5 440.58,289.6 -0.95,5.1 -203.85,-534.6 -203.85,-534.6 0,0 17.75,244.8 -236.73,245"
           style="fill:#e2c9aa;fill-opacity:1;fill-rule:nonzero;stroke:none"
           id="path146" /></g><g
         id="g148"
         transform="scale(1.10675)"><path
           d="m 8615.03,16286.5 c 0,0 -230.81,-45 -440.88,13.5 -3,-1.4 220.94,-275.4 220.94,-275.4 0,0 22.83,188.7 219.94,261.9"
           style="fill:#e2c9aa;fill-opacity:1;fill-rule:nonzero;stroke:none"
           id="path150" /></g><g
         id="g152"
         transform="scale(1.15104)"><path
           d="m 8291.57,16261.7 c 0,0 -112.89,-52.6 -247.28,21.9 -1.46,-1.1 -84.19,16.4 -84.19,16.4 0,0 156.47,-183.1 331.47,-38.3"
           style="fill:#191615;fill-opacity:1;fill-rule:nonzero;stroke:none"
           id="path154" /></g><g
         id="g156"
         transform="scale(1.15829)"><path
           d="m 7993.98,16181.8 c 0,0 111.36,-80.5 245.73,-21.8 -98.58,140 -245.73,21.8 -245.73,21.8"
           style="fill:#d0b497;fill-opacity:1;fill-rule:nonzero;stroke:none"
           id="path158" /></g><g
         id="g160"
         transform="scale(1.13949)"><path
           d="m 8144.61,15981 c -79.35,0 -148.08,59.2 -158.07,139.9 -10.81,87.4 51.28,167.1 138.7,177.9 6.64,0.8 13.25,1.2 19.78,1.2 79.34,0 148.07,-59.1 158.07,-139.9 10.8,-87.4 -51.29,-167.1 -138.7,-177.9 -6.64,-0.8 -13.25,-1.2 -19.78,-1.2"
           style="fill:#fae9d3;fill-opacity:1;fill-rule:nonzero;stroke:none"
           id="path162" /></g><g
         id="g164"
         transform="scale(1.13949)"><path
           d="m 8144.61,15981 c -79.35,0 -148.08,59.2 -158.07,139.9 -10.81,87.4 51.28,167.1 138.7,177.9 6.64,0.8 13.25,1.2 19.78,1.2 79.34,0 148.07,-59.1 158.07,-139.9 10.8,-87.4 -51.29,-167.1 -138.7,-177.9 -6.64,-0.8 -13.25,-1.2 -19.78,-1.2"
           style="fill:#ecbbc1;fill-opacity:1;fill-rule:nonzero;stroke:none"
           id="path166" /></g><g
         id="g168"
         transform="scale(1.10447)"><path
           d="m 8544.46,14977.5 c -20.44,0 -40.68,0.3 -60.72,1.1 l -23.02,0.9 c -148.73,5.3 -345.65,32.6 -564.68,78.8 l 19.18,48.6 c 205.74,-46.2 400.46,-75.4 547.21,-80.8 l 23.07,-0.8 c 340.25,-12.8 766.92,81.4 953.34,320.9 136.08,174.6 256.5,517 98.33,731.3 -121.6,164.7 -358,69.2 -488.09,-2.4 l -20.56,-11.3 c -132.25,-73.1 -335.02,-185.2 -504.74,-185.2 -44.83,0 -82.08,5.3 -120.4,23.7 l -0.67,48.5 c 161.65,-77.7 454.36,71.6 603.21,153.9 l 20.63,11.4 c 334.24,183.9 486.99,72.1 548.19,-10.9 172.67,-233.9 46.09,-601.5 -98.96,-787.7 -94.89,-121.9 -253.24,-217.3 -457.84,-275.9 -144.57,-41.4 -314.01,-64.1 -473.48,-64.1"
           style="fill:#ffffff;fill-opacity:1;fill-rule:nonzero;stroke:none"
           id="path170" /></g><g
         id="g172"
         transform="scale(1.15225)"><path
           d="m 8368.95,16234 49.05,66 -74,-15.5 24.95,-50.5"
           style="fill:#191615;fill-opacity:1;fill-rule:nonzero;stroke:none"
           id="path174" /></g><g
         id="g176"
         transform="scale(1.20338)"><path
           d="m 7510.2,16300 c 29.4,-6.5 57.62,-17.6 85.13,-30 27.35,-12.8 53.93,-27.5 79.27,-44.1 50.81,-33 97.08,-73.1 137.83,-118 40.38,-45.3 75.87,-95 104.05,-148.6 28.46,-53.3 50.9,-109.7 66.02,-167.9 -23.57,55.3 -49.92,108.8 -80.56,159.6 -3.7,6.5 -7.68,12.7 -11.79,18.9 l -11.94,18.7 c -8.59,12.1 -16.54,24.6 -25.68,36.2 -17.28,24.1 -36.24,46.8 -56.02,68.7 -19.49,22.2 -40.69,42.9 -62.58,62.7 -21.8,20 -44.95,38.4 -68.78,56 -48.02,34.6 -99.26,65.5 -154.95,87.8"
           style="fill:#4448a0;fill-opacity:1;fill-rule:nonzero;stroke:none"
           id="path178" /></g><g
         id="g180"
         transform="scale(1.20046)"><path
           d="m 7459.43,16300 c 26.37,-6.4 51.36,-17 75.52,-29.1 l 18,-9.4 17.36,-10.5 c 11.81,-6.8 22.67,-14.9 33.78,-22.7 43.75,-32.1 82.41,-70.9 116.78,-113 l 24.83,-32.4 c 8.25,-10.8 15.16,-22.6 22.81,-33.8 15.55,-22.5 27.33,-47.1 39.38,-71.5 6.3,-12 10.53,-25 15.6,-37.6 4.73,-12.7 9.65,-25.4 14.15,-38.1 7.81,-26 14.26,-52.4 20.25,-78.6 l -2.06,-0.7 c -11.56,24.6 -22,49.2 -32.3,73.8 -6.02,12 -11.63,24 -17.43,36 -5.87,12 -10.62,24.4 -17.54,35.8 -6.32,11.7 -12.6,23.4 -18.66,35.1 -5.63,12.1 -12.78,23.2 -19.53,34.7 -6.83,11.3 -12.9,23.2 -20.38,34.1 l -22.73,32.7 c -31.85,42.4 -68.1,81.8 -109.7,115 -10.46,8.2 -20.72,16.8 -31.94,24 l -16.53,11.2 -17.2,10.2 c -23.12,13.2 -47.37,25.1 -72.92,32.7 l 0.46,2.1"
           style="fill:#4448a0;fill-opacity:1;fill-rule:nonzero;stroke:none"
           id="path182" /></g><g
         id="g184"
         transform="scale(1.21037)"><path
           d="m 2811.14,10822.3 c -144.07,483.8 -221.33,925.4 46.71,1359.3 179.12,290 272.08,327.2 313.24,676.8 32.5,276 98.2,471.9 365,609.2 220.34,113.3 496.96,59.5 682.62,231.8 216.1,200.4 106.25,454.1 213.7,675.5 112.83,232.6 450.54,265.7 650.29,378.4 255.57,144.3 171.79,470.8 335.63,715.2 183.64,273.9 333.21,352.5 613.88,439.6 447.72,138.8 629.6,359.6 921.5,391.9 L 2811.14,10822.3"
           style="fill:#4549a0;fill-opacity:1;fill-rule:nonzero;stroke:none"
           id="path186" /></g><g
         id="g188"
         transform="scale(1.21496)"><path
           d="m 7272.38,16252.7 c -373.4,47.3 -744.53,-103.8 -985.74,-392.7 L 2926.68,12244.3 c -534.64,-640.4 -429.33,-1593.2 228.53,-2106.3 l -3.18,-3.1 c 697.18,-543.7 1712.71,-356.52 2170.23,400 l 1297.43,2134.3 c 429.59,710.4 818.08,1306.3 720.23,2097.3 -70.99,574 -108.28,668.8 134.41,782.7 l -72.44,229.2 180.67,-202.2 c 37.24,8.3 75.98,16.4 116.05,24.9 5.85,1.2 11.58,3.1 17.46,4.6 l 225.48,39.6 c -29.73,411.4 -386.8,571.6 -669.17,607.4"
           style="fill:#4549a0;fill-opacity:1;fill-rule:nonzero;stroke:none"
           id="path190" /></g><g
         id="g192"
         transform="scale(1.16326)"><path
           d="m 7675.84,16107.4 c 13.92,-112.6 -66.08,-215.2 -178.69,-229.1 -112.61,-14 -215.2,66 -229.12,178.6 -13.94,112.7 66.06,215.2 178.67,229.2 112.62,13.9 215.2,-66.1 229.14,-178.7"
           style="fill:#b81d23;fill-opacity:1;fill-rule:nonzero;stroke:none"
           id="path194" /></g><g
         id="g196"
         transform="scale(1.17483)"><path
           d="m 7483.68,16173.8 c 9.12,-73.8 -43.3,-141.1 -117.1,-150.2 -73.81,-9.1 -141.03,43.3 -150.16,117.1 -9.13,73.8 43.3,141 117.1,150.2 73.8,9.1 141.02,-43.3 150.16,-117.1"
           style="fill:#b81d23;fill-opacity:1;fill-rule:nonzero;stroke:none"
           id="path198" /></g><g
         id="g200"
         transform="scale(1.16296)"><path
           d="m 7370.16,16172.5 c 9.22,-74.6 -43.74,-142.5 -118.31,-151.7 -74.55,-9.2 -142.46,43.7 -151.68,118.3 -9.22,74.5 43.74,142.5 118.3,151.7 74.55,9.2 142.47,-43.8 151.69,-118.3"
           style="fill:#b81d23;fill-opacity:1;fill-rule:nonzero;stroke:none"
           id="path202" /></g><g
         id="g204"
         transform="scale(1.14541)"><path
           d="m 7540.57,16170.5 c 9.37,-75.7 -44.41,-144.6 -120.1,-154 -75.71,-9.3 -144.65,44.4 -154.02,120.1 -9.37,75.7 44.41,144.7 120.12,154 75.69,9.4 144.64,-44.4 154,-120.1"
           style="fill:#b81d23;fill-opacity:1;fill-rule:nonzero;stroke:none"
           id="path206" /></g><g
         id="g208"
         transform="scale(1.18822)"><path
           d="m 7219.43,15832.9 -326.07,467.1 -11.87,-8.3 326.06,-467.1"
           style="fill:#b81d23;fill-opacity:1;fill-rule:nonzero;stroke:none"
           id="path210" /></g><g
         id="g212"
         transform="scale(1.14662)"><path
           d="m 6810.86,16147.7 737.58,137.6 -2.75,14.7 -737.58,-137.5"
           style="fill:#b81d23;fill-opacity:1;fill-rule:nonzero;stroke:none"
           id="path214" /></g><g
         id="g216"
         transform="scale(1.14244)"><path
           d="m 6890.49,16233.8 c 4.78,-38.7 -22.7,-73.9 -61.39,-78.7 -38.68,-4.8 -73.92,22.7 -78.71,61.4 -4.78,38.7 22.7,73.9 61.39,78.7 38.68,4.8 73.92,-22.7 78.71,-61.4"
           style="fill:#b81d23;fill-opacity:1;fill-rule:nonzero;stroke:none"
           id="path218" /></g><g
         id="g220"
         transform="scale(1.19548)"><path
           d="m 6891.46,16236.8 c 4.58,-37 -21.69,-70.7 -58.66,-75.2 -36.96,-4.6 -70.64,21.6 -75.22,58.6 -4.56,37 21.7,70.7 58.67,75.2 36.96,4.6 70.65,-21.7 75.21,-58.6"
           style="fill:#b81d23;fill-opacity:1;fill-rule:nonzero;stroke:none"
           id="path222" /></g><g
         id="g224"
         transform="scale(1.1584)"><path
           d="m 8832.1,16196.9 v 0 c 3.89,-27 44.03,-40.3 79.59,-29.5 45.84,14 83.57,44.2 113.78,87.6 -0.34,45 -71.82,-18 -130.01,-13.6 -35.91,2.7 -67.07,-19.2 -63.36,-44.5"
           style="fill:#eba6af;fill-opacity:1;fill-rule:nonzero;stroke:none"
           id="path226" /></g><g
         id="g228"
         transform="scale(1.16662)"><path
           d="m 9089.5,16297.3 c -1.12,2.7 -5.23,1.9 -5.31,-1 -0.43,-27.2 -25.81,-55.1 -49.03,-65.8 -45.35,-20.9 -79.46,-5.7 -124.21,6.8 -28.97,8.1 -50.4,9.8 -69.43,3.6 -3,-0.6 -5.92,-1.3 -8.83,-2.2 -25.63,-8.1 -44.06,-27.9 -51.18,-51.5 -2.05,-5.5 -2.91,-11 -2.91,-16.6 -0.6,-9 0.34,-18.2 3.17,-27.2 11.15,-35.5 46.63,-56.7 82.98,-51.8 14.66,-0.5 32.57,4.4 46.37,7.8 38.15,9.4 83.92,25.4 117.44,47 49.97,32.2 84.34,96.4 60.94,150.9"
           style="fill:#2f2b2a;fill-opacity:1;fill-rule:nonzero;stroke:none"
           id="path230" /></g><g
         id="g232"
         transform="scale(1.12979)"><path
           d="m 8451.47,16254.5 c 0,0 51.7,34.7 55.89,37.9 9.71,7.3 17.12,7.5 25.43,1.2 l 13.61,-10.2 c 6.8,-5.1 16.36,-3.6 21.24,3.4 l 2.64,3.8 c 5.25,9.4 13.53,8.9 20.85,7.6 21.13,-3.9 35.5,-42.4 29.69,-68.7 -5,-22.6 -21.8,-44.8 -54,-47.6 -42.45,-2.1 -87.86,3.5 -115.35,72.6"
           style="fill:#b81d23;fill-opacity:1;fill-rule:nonzero;stroke:none"
           id="path234" /></g><g
         id="g236"
         transform="scale(1.16168)"><path
           d="m 8839.2,16238.1 c 3.18,-35.2 -15.84,-65.8 -42.44,-68.2 -26.69,-2.4 -50.87,24.2 -54.06,59.5 -3.19,35.3 15.84,65.8 42.44,68.2 26.68,2.4 50.87,-24.2 54.06,-59.5"
           style="fill:#2f2b2a;fill-opacity:1;fill-rule:nonzero;stroke:none"
           id="path238" /></g><g
         id="g240"
         transform="scale(1.19334)"><path
           d="m 8675.5,16205.1 c 70.39,11.6 194.25,21.2 297.99,-26.7 0,8.6 -41.23,121.6 -305.87,114.6 -21.36,-0.6 -39.38,-16.4 -42.23,-37.6 l -0.25,-1.3 c -3.86,-29.2 21.37,-53.8 50.36,-49"
           style="fill:#191615;fill-opacity:1;fill-rule:nonzero;stroke:none"
           id="path242" /></g><g
         id="g244"
         transform="scale(1.18241)"><path
           d="m 8800.22,16300 c 0,0 65.47,-52.7 211.35,-6.5 6.68,-0.5 1.02,-1.1 1.02,-1.1 0,0 -138.2,-131.9 -212.37,7.6"
           style="fill:#191615;fill-opacity:1;fill-rule:nonzero;stroke:none"
           id="path246" /></g><g
         id="g248"
         transform="scale(1.19321)"><path
           d="m 8585.48,16299.1 c 2.35,0.9 5.87,-25.7 6.87,-46.7 0.67,-14.6 -0.84,-25.8 -0.84,-25.8 0.68,-0.6 -7.2,-1.9 -21.37,10 -17.68,14.8 -15.92,50.4 15.34,62.5"
           style="fill:#191615;fill-opacity:1;fill-rule:nonzero;stroke:none"
           id="path250" /></g><path
         d="m 15034.6,4714.2 c 6.8,9.1 354.8,-318.1 510.9,-495 73.2,-83 268.7,-227 379.4,-227 167.6,0 249.9,-119.6 267.2,-220.1 -4.6,-0.3 -521.4,-38.1 -529.8,-38.8 -6.5,-0.4 -386.6,418.2 -386.6,418.2 0,0 -157.6,191.1 -185.9,-53.6 2,10 -32.7,-328 -32.7,-328 l -90.6,-2.2 58,398.7 c 6.9,47.6 -3.7,93.3 -31,124.6 -2.2,2.6 -4.5,5 -6.9,7.2 -5.8,5.3 -11.6,10.5 -16.9,16.3 -31.6,35.1 -119.1,155.7 64.9,399.7"
         style="fill:#b81d23;fill-opacity:1;fill-rule:nonzero;stroke:none"
         id="path252" /><g
         id="g254"
         transform="scale(1.17534)"><path
           d="m 16143.3,5595.41 9.9,-8.16 70,84.99 c 5.8,6.98 13.8,10.47 22.2,10.47 8.1,0 16.1,-3.32 21.9,-10.13 4.9,-5.78 6.9,-12.08 6.9,-18.46 0,-6.64 -2.4,-13.36 -6.5,-18.46 -4.3,-5.19 -10.1,-8.85 -17.7,-10.12 l -108.8,-17.45 2.1,-12.68 9.9,-8.16 -9.9,8.16 2,-12.76 108.8,17.44 c 13.9,2.22 25.7,9.53 33.6,19.32 7.9,9.78 12.2,22.04 12.2,34.71 0.1,12.08 -4.2,24.67 -12.9,35.05 -10.8,12.85 -26.3,19.32 -41.6,19.32 -15.5,0 -31.2,-6.72 -42.1,-19.91 l -91.6,-111.29 33.6,5.36 -2,12.76"
           style="fill:#100f0d;fill-opacity:1;fill-rule:nonzero;stroke:none"
           id="path256" /></g><g
         id="g258"
         transform="scale(1.17396)"><path
           d="m 16207.5,5480.01 83.6,41.4 c 6.3,3.15 8.9,10.82 5.7,17.21 -3.1,6.39 -10.8,9.03 -17.2,5.88 l -83.5,-41.4 c -6.4,-3.16 -9,-10.82 -5.8,-17.21 3.1,-6.39 10.8,-9.03 17.2,-5.88"
           style="fill:#100f0d;fill-opacity:1;fill-rule:nonzero;stroke:none"
           id="path260" /></g><g
         id="g262"
         transform="scale(1.17579)"><path
           d="m 16207.6,5429.7 83.5,41.25 c 6.3,3.15 8.9,10.89 5.8,17.27 -3.2,6.38 -10.8,8.93 -17.2,5.78 l -83.5,-41.25 c -6.3,-3.14 -9,-10.88 -5.8,-17.18 3.2,-6.37 10.9,-9.01 17.2,-5.87"
           style="fill:#100f0d;fill-opacity:1;fill-rule:nonzero;stroke:none"
           id="path264" /></g><g
         id="g266"
         transform="scale(1.17733)"><path
           d="m 16207.8,5375.04 83.3,41.19 c 6.4,3.15 8.9,10.87 5.8,17.16 -3.2,6.37 -10.9,9 -17.2,5.86 l -83.3,-41.19 c -6.4,-3.15 -9,-10.88 -5.9,-17.25 3.2,-6.37 10.9,-8.92 17.3,-5.77"
           style="fill:#100f0d;fill-opacity:1;fill-rule:nonzero;stroke:none"
           id="path268" /></g><g
         id="g270"
         transform="scale(1.16692)"><path
           d="m 16271.5,5643.15 -11.3,6.59 -56.3,-95.46 c -5.5,-9.34 -15.1,-14.23 -25,-14.31 -6.7,0.08 -13.4,2.23 -18.9,7.11 -7,6.09 -10,13.8 -10.1,21.77 0,5.91 1.8,11.91 5.3,16.79 3.4,4.89 8.2,8.74 14.8,10.89 l 105.4,34.27 -3.9,12.35 -11.3,6.59 11.3,-6.59 -4.1,12.33 -105.5,-34.27 c -12,-3.95 -21.6,-11.49 -28.1,-20.83 -6.4,-9.34 -9.7,-20.39 -9.7,-31.53 -0.1,-14.91 6.1,-30.34 18.9,-41.39 10.5,-9 23.3,-13.37 35.9,-13.37 18.5,-0.09 36.9,9.42 47.3,26.99 l 73.8,125.03 -32.6,-10.63 4.1,-12.33"
           style="fill:#100f0d;fill-opacity:1;fill-rule:nonzero;stroke:none"
           id="path272" /></g><g
         id="g274"
         transform="scale(1.19003)"><path
           d="m 16112.9,5059.53 c 0.5,-0.84 10.1,-16.38 30.1,-32.18 20,-15.71 50.9,-31.6 92.2,-31.6 16.6,0 34.8,2.53 54.5,8.41 6.6,2.01 10.3,8.9 8.4,15.54 -2,6.56 -8.9,10.34 -15.6,8.41 -17.5,-5.3 -33.3,-7.4 -47.3,-7.4 -34.9,0 -59.9,13.11 -76.8,26.22 -8.3,6.55 -14.5,13.19 -18.6,18.07 -2,2.43 -3.5,4.45 -4.4,5.8 l -1,1.42 -0.3,0.34 v 0 c -3.6,5.88 -11.2,7.73 -17.1,4.11 -5.9,-3.61 -7.8,-11.25 -4.1,-17.14"
           style="fill:#100f0d;fill-opacity:1;fill-rule:nonzero;stroke:none"
           id="path276" /></g><path
         d="m 10301.8,4407.8 c 0,0 -42.3,439.8 -45.2,463 l 462.5,57.1 47.1,-462.6 -269.4,-50 -195,-7.5"
         style="fill:#ffffff;fill-opacity:1;fill-rule:nonzero;stroke:none"
         id="path278" /><path
         d="m 10946.6,4290.7 -156.5,188 -297,-58.8 -190.8,8.4 c 5.9,-47.5 4.6,-1016.2 -26.2,-1435.1 -3.8,-52.8 56.7,-85 98.3,-52.3 158.6,124.6 430.2,409.1 446.6,1034 8.7,-6.8 118.1,-27.9 118.1,-27.9 l 7.5,343.7"
         style="fill:#2f2b2a;fill-opacity:1;fill-rule:nonzero;stroke:none"
         id="path280" /><path
         d="m 10467.2,3537.7 -2.3,0.2 c -9.3,1.3 -15.8,9.8 -14.5,19.1 61.2,447.1 7.2,872.3 6.6,876.6 -1.2,9.3 5.4,17.8 14.7,19 9.4,1.2 17.8,-5.3 19,-14.6 0.6,-4.3 55.2,-433.9 -6.6,-885.6 -1.2,-8.5 -8.5,-14.7 -16.9,-14.7"
         style="fill:#1a1716;fill-opacity:1;fill-rule:nonzero;stroke:none"
         id="path282" /><path
         d="m 10562,3131.8 c -53.3,11.3 -113.9,46.7 -134.4,145.2 -52.3,-72.2 -136.3,-86.3 -140.3,-86.9 l 0.4,33.9 c 4,0.6 97,17.4 134.4,113.7 6.4,16.5 30.6,13.5 32.7,-4.1 v 0 c 0.2,-1.4 0.4,-3.9 0.6,-7.1 5.3,-91.5 55.4,-150.2 127.4,-165.6 l -20.8,-29.1"
         style="fill:#1a1716;fill-opacity:1;fill-rule:nonzero;stroke:none"
         id="path284" /><path
         d="m 10415.9,4007.9 c -8.5,0 -15.8,6.3 -16.9,14.9 -1.1,9.3 5.5,17.8 14.8,19 l 187.3,23.1 c 9.3,1.3 17.8,-5.4 19,-14.7 1.1,-9.4 -5.5,-17.8 -14.8,-19 l -187.3,-23.2 -2.1,-0.1"
         style="fill:#1a1716;fill-opacity:1;fill-rule:nonzero;stroke:none"
         id="path286" /><path
         d="m 10397.6,3910.4 c -8.5,0 -15.8,6.3 -16.9,14.9 -1.1,9.3 5.5,17.8 14.8,19 l 187.3,23.1 c 9.2,1.2 17.8,-5.4 18.9,-14.7 1.2,-9.4 -5.4,-17.8 -14.8,-19 l -187.2,-23.2 -2.1,-0.1"
         style="fill:#1a1716;fill-opacity:1;fill-rule:nonzero;stroke:none"
         id="path288" /><path
         d="m 10385.9,3813.7 c -8.4,0 -15.7,6.3 -16.8,14.9 -1.1,9.3 5.5,17.8 14.8,19 l 187.3,23.2 c 9.3,1.2 17.7,-5.5 18.9,-14.8 1.2,-9.3 -5.5,-17.8 -14.8,-19 l -187.2,-23.1 -2.2,-0.2"
         style="fill:#1a1716;fill-opacity:1;fill-rule:nonzero;stroke:none"
         id="path290" /><path
         d="m 10484.5,4397.9 h 0.1 z m -225.1,4.2 c -13.9,0 -26.6,-6.2 -35.1,-17.4 -9,-11.9 -11.5,-26.9 -6.7,-41 4,-12.1 13.1,-21.8 24.8,-26.8 11.7,-4.9 24.9,-4.6 36.4,0.9 l 155.3,74.7 -172.1,9.6 z m 0.2,-122.6 c -10.4,0 -20.7,2 -30.4,6.1 -20.7,8.7 -36.7,25.9 -43.9,47.2 -8.3,24.7 -3.8,51.7 12,72.5 15.7,20.7 40.7,32.1 66.6,30.7 l 219.7,-12.2 c 10,-0.5 18.2,-7.7 20.1,-17.4 2,-9.7 -2.9,-19.5 -11.8,-23.8 v 0 l -198.4,-95.4 c -10.7,-5.2 -22.3,-7.7 -33.9,-7.7"
         style="fill:#1a1716;fill-opacity:1;fill-rule:nonzero;stroke:none"
         id="path292" /><path
         d="m 10821,3974.9 -30.9,503.8 156.5,-188 -7.5,-343.7 -118.1,27.9"
         style="fill:#5c5455;fill-opacity:1;fill-rule:nonzero;stroke:none"
         id="path294" /><path
         d="m 10493.5,4406.4 h 0.1 z m 50.4,-4.9 166.7,-43.8 c 14.5,-3.7 29.2,-0.3 40.5,9.6 11.2,9.8 16.6,23.9 14.8,38.8 -1.6,12.6 -8.5,23.9 -19,31.1 -10.4,7.2 -23.5,9.5 -35.8,6.4 z m 178,-79.2 c -6.6,0 -13.3,0.8 -19.9,2.6 l -212.9,55.9 c -9.5,2.5 -16.2,11.2 -16.2,21.1 0.1,9.9 6.8,18.5 16.5,21 l 213.4,53.7 c 21.7,5.5 44.8,1.4 63.4,-11.3 18.5,-12.7 30.7,-32.8 33.4,-55 3.2,-25.9 -6.6,-51.5 -26.1,-68.6 -14.5,-12.7 -32.8,-19.4 -51.6,-19.4"
         style="fill:#1a1716;fill-opacity:1;fill-rule:nonzero;stroke:none"
         id="path296" /><path
         d="m 10920.8,4953.1 v 2.3 c 3.2,-0.2 6.3,-0.2 9.4,-0.3 l -9.4,-2"
         style="fill:#d6d4d2;fill-opacity:1;fill-rule:nonzero;stroke:none"
         id="path298" /><path
         d="m 13658.4,10960.6 c -0.9,8.4 -1.9,16.8 -2.9,25.3 1.4,-8.6 2.4,-17 2.9,-25.3"
         style="fill:#282423;fill-opacity:1;fill-rule:nonzero;stroke:none"
         id="path300" /><path
         d="m 10930.2,4955.1 c -3.1,0.1 -6.2,0.1 -9.4,0.3 l 89.4,4743.2 2633.5,1335.6 c 5.4,-16.5 9.3,-32.6 11.8,-48.3 1,-8.5 2,-16.9 2.9,-25.3 18.7,-274.6 -389.6,-437.1 -640.5,-576.5 -367.6,-204.2 -735.3,-408.5 -1103,-612.8 -236.3,-131.3 -488.6,-279.8 -594,-528.8 -71.5,-169.3 -63.4,-360 -56.4,-543.6 47.1,-1236.6 19.3,-2476.7 -145.4,-3703.1 l -188.9,-40.7"
         style="fill:#d5d4d2;fill-opacity:1;fill-rule:nonzero;stroke:none"
         id="path302" /><path
         d="m 10930.2,4955.1 c -3.1,0.1 -6.2,0.1 -9.4,0.3 l 89.4,4743.2 2633.5,1335.6 c 5.4,-16.5 9.3,-32.6 11.8,-48.3 1,-8.5 2,-16.9 2.9,-25.3 18.7,-274.6 -389.6,-437.1 -640.5,-576.5 -367.6,-204.2 -735.3,-408.5 -1103,-612.8 -236.3,-131.3 -488.6,-279.8 -594,-528.8 -71.5,-169.3 -63.4,-360 -56.4,-543.6 47.1,-1236.6 19.3,-2476.7 -145.4,-3703.1 l -188.9,-40.7"
         style="fill:#b81d23;fill-opacity:1;fill-rule:nonzero;stroke:none"
         id="path304" /><path
         d="m 13220.7,8361.3 c -29.2,55.4 -82.7,145.7 -163.6,241.5 71,-81.5 123.8,-164.5 163.6,-241.5"
         style="fill:#d6d4d2;fill-opacity:1;fill-rule:nonzero;stroke:none"
         id="path306" /><path
         d="m 13247.8,8305.6 v 0 0 c 0,0 -8.8,21 -27.1,55.7 -39.8,77 -92.6,160 -163.6,241.5 -69,81.8 -158,167.7 -269,239.3 v 0.1 c -3.2,70.7 -0.5,142.1 12.3,214.9 3.7,21.4 7.9,42.4 12.5,62.9 13.9,59 33.1,123.7 58.8,190.6 51.9,130.5 123.3,246.5 208.7,359.6 0.1,0.1 0.3,0.2 0.4,0.4 80.6,95.9 179.1,210.2 247.5,300.6 66.5,87.8 104.5,153 106.5,156.5 0,0 0.1,0 0.1,0.1 l 282.9,-625.7 v 0 c 0,0 -427.2,-470.2 -470,-1196.5"
         style="fill:#cbb698;fill-opacity:1;fill-rule:nonzero;stroke:none"
         id="path308" /><path
         d="m 12788.1,8842.2 c -11.9,16.5 -10.4,128.7 24.8,277.8 -4.6,-20.5 -8.8,-41.5 -12.5,-62.9 -12.8,-72.8 -15.5,-144.2 -12.3,-214.9 m 83.6,468.4 c 46.1,120 113.3,246.9 208.7,359.6 -85.4,-113.1 -156.8,-229.1 -208.7,-359.6 m 563.1,817.1 c 0.1,0.1 0.1,0.1 0.1,0.1 v 0 0 0 c 0,-0.1 -0.1,-0.1 -0.1,-0.1"
         style="fill:#d5d4d2;fill-opacity:1;fill-rule:nonzero;stroke:none"
         id="path310" /><path
         d="m 12788.1,8842.2 c -11.9,16.5 -10.4,128.7 24.8,277.8 -4.6,-20.5 -8.8,-41.5 -12.5,-62.9 -12.8,-72.8 -15.5,-144.2 -12.3,-214.9 m 83.6,468.4 c 46.1,120 113.3,246.9 208.7,359.6 -85.4,-113.1 -156.8,-229.1 -208.7,-359.6 m 563.1,817.1 c 0.1,0.1 0.1,0.1 0.1,0.1 v 0 0 0 c 0,-0.1 -0.1,-0.1 -0.1,-0.1"
         style="fill:#b81d23;fill-opacity:1;fill-rule:nonzero;stroke:none"
         id="path312" /><path
         d="m 14198,8263.7 v 0.1 c -185.8,516.4 -347.2,924.1 -480.5,1239.1 -2.8,6.7 -6,14.1 -9.4,22.2 -112.4,264.6 -204.3,462.3 -273.2,602.7 102.4,164.5 178.6,342.8 218.9,539.6 12.1,58.7 15.1,118.2 13.3,177.4 3,121.6 -17.5,190.9 -18,192.8 -0.1,0 -0.1,0 -0.1,0 l 0.1,0.1 612.6,310.8 -426.4,-1942.9 19,-4.1 428.1,1950.6 -9.5,2.1 555.1,281.7 h 0.1 c 58.5,28.7 114.5,61.6 167.6,98.5 -727.6,-804 -1050.8,-1894.6 -878.9,-2965.1 l 81.2,-505.6"
         style="fill:#221e1d;fill-opacity:1;fill-rule:nonzero;stroke:none"
         id="path314" /><path
         d="m 14198,8263.8 -480.2,1238.3 v 0 0 c -0.1,0.3 -0.2,0.5 -0.3,0.8 133.3,-315 294.7,-722.7 480.5,-1239.1 m -489.9,1261.3 c -72.3,168.7 -272.4,600.9 -273.2,602.7 v 0 c 68.9,-140.4 160.8,-338.1 273.2,-602.7"
         style="fill:#a6947d;fill-opacity:1;fill-rule:nonzero;stroke:none"
         id="path316" /><path
         d="m 13434.9,10127.8 v 0 0 c 183.8,306.4 228.3,557 232.2,717 1.8,-59.2 -1.2,-118.7 -13.3,-177.4 -40.3,-196.8 -116.5,-375.1 -218.9,-539.6 v 0 m 214.2,909.8 c -0.1,0 -0.1,0 -0.1,0 v 0 c 0,0 0,0 0.1,0"
         style="fill:#aeaaa9;fill-opacity:1;fill-rule:nonzero;stroke:none"
         id="path318" /><path
         d="m 13434.9,10127.8 v 0 0 c 183.8,306.4 228.3,557 232.2,717 1.8,-59.2 -1.2,-118.7 -13.3,-177.4 -40.3,-196.8 -116.5,-375.1 -218.9,-539.6 v 0 m 214.2,909.8 c -0.1,0 -0.1,0 -0.1,0 v 0 c 0,0 0,0 0.1,0"
         style="fill:#b81d23;fill-opacity:1;fill-rule:nonzero;stroke:none"
         id="path320" /><path
         d="m 13649.1,11037.7 614.2,317.8 -1.6,-7 -612.6,-310.8 m 623.8,316.5 -8.5,1.9 731.4,378.5 c 0,-0.1 -0.1,-0.2 -0.1,-0.2 -53.1,-36.9 -109.1,-69.8 -167.6,-98.5 h -0.1 l -555.1,-281.7"
         style="fill:#2c2727;fill-opacity:1;fill-rule:nonzero;stroke:none"
         id="path322" /><path
         d="m 13854.3,9401.5 -19,4.1 426.4,1942.9 1.6,7 1.1,0.6 8.5,-1.9 9.5,-2.1 -428.1,-1950.6"
         style="fill:#161412;fill-opacity:1;fill-rule:nonzero;stroke:none"
         id="path324" /><path
         d="m 8999.79,15448.4 c 0,0 -495.88,115.6 -748.49,-410.4 10.82,-47.1 383.29,-359.8 383.29,-359.8 l 365.2,770.2"
         style="fill:#f7debb;fill-opacity:1;fill-rule:nonzero;stroke:none"
         id="path326" /><path
         d="m 8310.01,15142.6 148.47,300.9 c 87.15,176.7 280.02,275.1 474.19,241.9 l -167.64,-391.1 -455.02,-151.7"
         style="fill:#f7debb;fill-opacity:1;fill-rule:nonzero;stroke:none"
         id="path328" /><path
         d="m 6300.89,4887 -3.02,3.3 c 21.96,18.8 43.86,37.5 65.59,55.8 -32.79,-30.4 -62.57,-59.1 -62.57,-59.1"
         style="fill:#d6d4d2;fill-opacity:1;fill-rule:nonzero;stroke:none"
         id="path330" /><path
         d="m 6297.87,4890.3 -426.83,476.7 99.29,168.8 c 0,0 47.39,-55 112.74,-129.5 81.26,-99.1 167.06,-194.4 256.93,-285.3 47.62,-50.6 86.82,-89.9 106.93,-105 -7.67,-1.1 -47.38,-36.4 -83.47,-69.9 -21.73,-18.3 -43.63,-37 -65.59,-55.8"
         style="fill:#cbb698;fill-opacity:1;fill-rule:nonzero;stroke:none"
         id="path332" /><path
         d="m 6340,5121 c -89.87,90.9 -175.67,186.2 -256.93,285.3 76.79,-87.5 178.35,-201.8 256.93,-285.3"
         style="fill:#d5d4d2;fill-opacity:1;fill-rule:nonzero;stroke:none"
         id="path334" /><path
         d="m 6340,5121 c -89.87,90.9 -175.67,186.2 -256.93,285.3 76.79,-87.5 178.35,-201.8 256.93,-285.3"
         style="fill:#b81d23;fill-opacity:1;fill-rule:nonzero;stroke:none"
         id="path336" /><path
         d="m 6448.25,5015.1 c -0.43,0.3 -0.87,0.6 -1.31,0.9 h 0.01 c 0.12,0.1 0.23,0.1 0.33,0.1 0.14,0 0.27,0 0.38,-0.1 0.19,-0.2 0.33,-0.3 0.52,-0.5 0.05,-0.1 0.07,-0.2 0.07,-0.4"
         style="fill:#d6d4d2;fill-opacity:1;fill-rule:nonzero;stroke:none"
         id="path338" /><path
         d="m 6446.94,5016 c -0.01,0 -0.01,0 -0.01,0 0.01,0 0.01,0 0.02,0 h -0.01"
         style="fill:#cbb698;fill-opacity:1;fill-rule:nonzero;stroke:none"
         id="path340" /><path
         d="m 6448.18,5015.5 c -0.19,0.2 -0.33,0.3 -0.52,0.5 0.26,-0.1 0.43,-0.2 0.52,-0.5"
         style="fill:#d5d4d2;fill-opacity:1;fill-rule:nonzero;stroke:none"
         id="path342" /><path
         d="m 6448.18,5015.5 c -0.19,0.2 -0.33,0.3 -0.52,0.5 0.26,-0.1 0.43,-0.2 0.52,-0.5"
         style="fill:#b81d23;fill-opacity:1;fill-rule:nonzero;stroke:none"
         id="path344" /></g></g></svg>